<svg id="Capa_4" data-name="Capa 4" xmlns="http://www.w3.org/2000/svg" viewBox="0 0 573.28 497.61"><defs><style>.cls-1{fill:#4a5933;}.cls-2{fill:#879a45;}.cls-3{fill:#57372a;}.cls-4{fill:#8b5a3e;}.cls-5{fill:#cead7f;}.cls-6{fill:#e9cb94;}.cls-7{fill:#bc8d46;}.cls-8{fill:#f9b551;}.cls-9{fill:#644987;}.cls-10{fill:#5c3825;}.cls-11{fill:#f6cf82;}.cls-12{fill:#352412;}.cls-13{fill:#372250;}.cls-14{fill:#f3ede7;}.cls-15{fill:#e78e29;}.cls-16{fill:#050203;}.cls-17{fill:#382111;}.cls-18{fill:#1e120d;}</style></defs><path d="M1451.19,455.75a13.92,13.92,0,0,0-16-7.41c-10.12,2.26-20.22,4.59-30.34,6.83q-29.87,6.63-59.74,13.21c-2.23.49-3.74.17-5.14-2.1a20.92,20.92,0,0,0-15.39-10.16C1303.7,453.32,1287,443,1273,427.74c-1.83-2-2.88-3.55-.64-6.08a11.78,11.78,0,0,0,2.77-8.37c-.07-2,.73-2.61,2.45-3a171.69,171.69,0,0,0,24.55-7.08c19.42-7,37.56-16.07,52-31.34,3.59-3.81,6.84-7.9,8.45-12.95a6.64,6.64,0,0,1,4.15-4.48c9.49-4.23,13.34-11.4,10.95-21.23a62.27,62.27,0,0,0-19.53-32.81c-8.51-7.48-18.84-11.64-29.55-14.53-5.78-1.57-9.93-3.45-11.09-10-.45-2.53-.55-3.4,1.92-4.51,21.89-9.81,43.45-20.31,64.06-32.64,3.57-2.14,7.12-4.35,9.92-7.49,3-3.37,2-6.88-2.33-8.28a25.52,25.52,0,0,0-3-.72,133,133,0,0,0-24.14-1.95c-32.37-.26-64.7,1.21-97,2.52-2,.08-3.65.06-5.09-1.89l-.35-.47-.05-.07,0,0a3,3,0,0,0-3.35-1.06L1256,220l-12-16a3,3,0,0,0,2-1.9,2.93,2.93,0,0,0-.15-2.27q-2.11-2.81-4.19-5.63l-2.64-3.47,0-.05c-.12-.15-.25-.29-.39-.44-3.36-3.77-7.38-5.67-12.89-4.55-2.57.53-4.58-.38-6.57-2.15-5-4.45-10.14-8.78-15.41-12.91-28.37-22.28-60-38.17-94.56-48.43-8.55-2.53-16-1.28-23,4.28a182.09,182.09,0,0,0-18.82,17.38c-9.6,10-18.07,21-26.84,31.76a30.63,30.63,0,0,1-8.71,7.66,21.48,21.48,0,0,1-13.37,2.42c-5-.59-10-2-15.11-1.64-4.54.33-6.18,3.18-3.72,7a16.88,16.88,0,0,0,3,3.37,66.9,66.9,0,0,0,20.49,12.7,53.46,53.46,0,0,0,28.25,2.73c10.06-1.6,19.14-5.83,27.87-10.85,2.57-1.48,4.16-1.16,5.8,1.15a52,52,0,0,1,5.71,10.26c5.32,13,7.69,26.75,10.5,40.4.57,2.75.58,5.05-1.29,7.37a9.41,9.41,0,0,0-1.65,5.19c-.62,7.28-.22,14.54.1,21.81.08,1.82-.18,3.24-2,4.39-16.3,10.51-32.43,21.26-49.17,31.06-9.46,5.54-19.25,10.46-28.94,15.57-2.47,1.3-5,3-4.4,6.35s3.14,4.86,6.36,5.44a84,84,0,0,0,14.5,1,383.85,383.85,0,0,0,42.86-2.51c15.59-1.74,31.18-3.53,46.68-6,6.61-1,13.21-2.08,19.82-3.06,1.65-.24,3.14,0,2.8,2.28-.84,5.58.21,10.94,2.19,16.45-.83-.11-1.38-.16-1.92-.26a87.73,87.73,0,0,0-27.25-.7c-16.53,2.13-32.48,6.77-48.29,11.79a107.07,107.07,0,0,1-24.23,4.79,100.11,100.11,0,0,1-19.88-.45,106.06,106.06,0,0,1-10.88-1.93c-1.2-.28-2.4-.58-3.6-.91a199.28,199.28,0,0,1-19.35-5.55c-7.16-2.42-15.06-5.48-23.69-9.34l-3.2-1.46a3.49,3.49,0,0,0-4,.78c-.06.07-.38.41-.84,1-.29.36-.64.82-1,1.37a30.74,30.74,0,0,0-5.44,22.1c1.95,12.69,12.14,24.33,30.31,34.59,36.48,20.6,64,21,88.29,21.43h.72c-7.59,14.35-10.56,29.26-5.65,45,5,16.22,17,25.72,32.83,32.2-6.85.87-12.83,1.41-18.72,2.47-3.23.58-5.36.69-5.66-3.4-.13-1.74-1.59-3.05-3-4.16a16.19,16.19,0,0,0-18.75-1.55c-2,1.19-3.59,1.67-6,.82a8.39,8.39,0,0,0-7.4.64c-2.91,2-4.5.66-6.42-1.35-21.35-22.32-47.55-31.77-78.2-29.27a43.14,43.14,0,0,0-11.85,2.3c-4.5,1.7-5.06,5-1.35,8,2.11,1.71,4.48,3.1,7,4.8a111.14,111.14,0,0,0-19.35,4.26A93.6,93.6,0,0,0,892.35,519a19.24,19.24,0,0,0-4.52,6.9c-1.34,3.8-.05,5.55,3.93,5.2,2.12-.19,4.23-.54,6.55-.84-.56,1.33-1.65,1.59-2.46,2.14-4.58,3.12-9.15,6.27-13,10.36-2.7,2.91-2.7,5.69,0,8.53a36.26,36.26,0,0,0,4,3.33c4.05,3.08,8.73,5,13.54,7.29-5.07.9-6.36,4.15-3.4,8a18.42,18.42,0,0,0,3.46,3.37,74.07,74.07,0,0,0,30.2,13.93,109.53,109.53,0,0,0,23.58,2.31c-1.67.9-3.39,1.42-5,2.12a42.88,42.88,0,0,0-5,2.44,4.64,4.64,0,0,0-2.63,4.53c.19,1.9,1.61,3,3.28,3.72a14.28,14.28,0,0,0,2.63.81c19.19,4,37.3,1.42,54.4-8.45,15.57-9,27.36-21.82,37.69-36.19,1.06-1.48,1.85-1.78,3.58-1.22,3.7,1.2,7.58,1.6,11-.72a5.47,5.47,0,0,1,5.39-.56c10.62,3.57,20.16-1,23.9-11.45.26-.73.13-1.64,1.26-1.77,6.72-.76,13.44-1.54,20.52-2.36-2.08,7.29.7,12.34,5.19,17.1,10.72,11.33,21.29,22.81,29.87,35.93a80.12,80.12,0,0,0,6.5,9.39c3.74,4.26,11.31,6.57,15.95,1.65.84-.9,1.51-.7,2.37-.09,6.16,4.33,14.23-.34,13.61-8.63-.16-2.14.28-3.38,2.4-4.22a7.29,7.29,0,0,0,4.75-6c.34-3.3,1.89-2.92,4.25-2.49,7.45,1.35,12.66-4.32,10.9-11.63a21.4,21.4,0,0,0-3.53-7.45,59.93,59.93,0,0,0-13.35-13c-6.38-4.76-13.43-8.4-20.86-12.25,4-2.62,7.45-4.87,10.87-7.21a8.37,8.37,0,0,1,3.56-1.2q39.3-6.09,78.6-12.23a3.14,3.14,0,0,1,3.67,1.51c3.65,5.15,8.51,6.63,14.58,4.66a3.24,3.24,0,0,1,2.55-.17c5.34,2.12,9,1.33,12.7-2.8a3.37,3.37,0,0,1,3.21-1.25c6.32.45,11.08-2.49,12.94-8.65.88-3,2.53-3.65,5-4,5.26-.71,10.52-1.41,15.75-2.26,27.2-4.43,54.41-8.75,81.49-13.8q17.33-3.23,34.59-6.83c5.07-1.07,8.84-4.06,10.26-9.23A27.11,27.11,0,0,0,1451.19,455.75Zm-401.78,95.37-.15,0c-1.94-2.69-5.16-8.08-7.54-16.88-2.72-10.06,1.5-18.63,3.84-22.35a11.85,11.85,0,0,1,2.49-.14c-4.57,10.12-5.08,20.38-1.11,30.79a19.37,19.37,0,0,0,3.53,5.89C1052,550.19,1051.15,550.85,1049.41,551.12Zm229.82-191.63c24.51,4.06,49,3,73.39-1.55.74-.14,1.71-.86,2.14.09a3.27,3.27,0,0,1-.45,2.28,19.42,19.42,0,0,1-1.1,2,39.85,39.85,0,0,1-5.89,6.95c-13,12.91-28.76,21.1-45.77,27.11a190,190,0,0,1-28.18,8.07c-2.59.49-5.19.89-7.82,1.18-36.68-5.46-36.42-48.2-36.42-48.2.51-4.35,1.66-8.19,4.38-11.29a14.3,14.3,0,0,1,1-1.06c1.09-1,1.89-1.6,3.46-.42C1250.19,353.81,1264.64,357.08,1279.23,359.49Zm-94-26.93a52.74,52.74,0,0,1-25.9,26.19c-2.72-1.46-4.1-3.93-4.76-6.88-2.64-11.85-1.06-22.74,8.3-31.49,12.49-11.67,27.42-19.45,42.71-26.64a174.39,174.39,0,0,1,34.48-12.16,6.78,6.78,0,0,1,3.69-.24c-.1.38-.19.77-.28,1.15C1228.57,292,1193,315.81,1185.26,332.56Zm10.26-124.41c2.79-1.08,4-.66,5.5,1.94,4.63,8.08,9.6,16,14.56,24.17-2.76.89-5.52,1.8-8.26,2.74l-17-26.8C1192,209.51,1193.77,208.82,1195.52,208.15Zm-58,58.11q-16.46,8.34-32.43,17.95c-.29-6.55-.74-12.62.4-18.65,1-5,3.73-8.75,7.73-11.87q9.66-7.51,19.82-14.1C1135.71,245.41,1139.86,256.68,1137.53,266.26Zm-78.73-65c-18.16,6-34.44,2.47-49.7-9.85,5.59.2,10.47,1.17,15.44,1.05,6.42-.14,12-2.16,16.43-6.88l.39-.42a72,72,0,0,0,23.38-1.29c33.72-7.15,26.33,2.13,26,2.52h0C1080.05,191.31,1070,197.61,1058.8,201.3Zm37.52,5.37a48.88,48.88,0,0,0-6.53-11c-1.16-1.47-1.3-2.33.2-3.62a31.42,31.42,0,0,0,3.44-3.48c1.12-1.29,2.18-2.69,3.27-4.18a5.74,5.74,0,0,0,.63,7.49h0c9.52,8.29,26.72,24.77,33.76,41q-9.27,6-18.08,12.8c-5.24,4.06-5.15,4-6.55-2.53C1103.83,230.83,1101.39,218.39,1096.32,206.67Zm39,71.9-52.63,46.56q-3.54,1.13-7.1,2.21c-14.76,4.49-29.42,9.35-44.56,12.51a7.54,7.54,0,0,1-4.78-.42c2.68-1.43,5.33-2.91,8-4.28,20.29-10.36,39.2-23,58.22-35.42q7.31-4.77,14.74-9.26,18.62-11.22,38-20.72a554,554,0,0,1,69.57-28.29c3-1,5.11-1.18,7.37,1.67,2.53,3.21,6.29,4.16,10.35,3,8.61-2.57,17.22-5.13,25.8-7.79a11.28,11.28,0,0,0,4.66-2.62c-6.43,7.56-21.93,11.45-29.54,14-8.62,2.87-14.34-.26-17.93-2.35C1213.48,246.08,1170.61,263.7,1135.34,278.57Zm-27,254.73c-1.15.13-2.3.26-3.45.41,3.27-6.3,11.2-14.06,11.2-14.06a31.06,31.06,0,0,1-11.63-2.77c4.08-.53,8.16-1.06,12.24-1.56,2.91-.36,5.9-.05,9.62-.05-5.89,4.57-9.36,10.23-13.43,15.38A6.27,6.27,0,0,1,1108.35,533.3ZM1138,398.09c-18.55,2-23,23.44-33.33,40.26l0,0c-.75,1.56-22.78,47.94,16.63,51.71,2.54.18,5.18.25,7.91.19h.09l1,0,1.72-.07q2.6-.14,5.28-.42,3.59-.39,7.35-1.08c40.28-7.46-12.34,53.21-25.64,68q-1.92-2.11-3.85-4.22c-5.27-5.73-5.24-9.2.46-14.26a35.5,35.5,0,0,0,6.58-8c3.4-5.48,7.84-9.92,12.64-14.12,3.63-3.18,6.88-6.74,8.41-11.3-17.68,7-34.12,3.25-49.7-5.93-10.48-6.17-16.85-15.18-19.09-26.8-.27-1.43-.49-2.9-.64-4.41a47,47,0,0,1,0-8.95,53.81,53.81,0,0,1,5.31-18.54c8.22-17.09,20.84-30.6,35.34-42.56,6.6-5.44,14.27-6.84,22.49-7.47,21.15-1.61,41,3.46,60.29,11.34,2.23.91,4.42,1.91,6.61,2.91C1192,401.56,1162.15,395.44,1138,398.09Zm40.5,24a47,47,0,0,0,4,19.91c.89,2.08.61,3.16-1.17,4.55-.87.68-1.73,1.38-2.57,2.1C1174.33,438.48,1178.1,423.77,1178.54,422.13Zm40.3,63.56c-22.81-11.55-33.91-27-37.53-33q1.67-1.56,3.28-3.15c1.2-1.17,1.84-1.16,2.86.27,11,15.34,20.42,23.06,35.65,31.5A46,46,0,0,1,1218.84,485.69Zm28.3,27.16c-7-5-10.07-12.67-11.32-16.84,2-.32,4-.66,6-1,2.8-.47,4.39.44,5.48,2.84a58.24,58.24,0,0,0,8,13.72Zm2.15-86.9a37.27,37.27,0,0,1-13.81-2.85,15,15,0,0,1-4.13-2.47c-1.45-1.31-2.86-3.26-2.3-5.06.35-1.13,2.68-.21,4.11-.25,3.57-.1,7.15,0,11.34,0-1.8-1.68-3.65-1.78-5.21-2.38-13.57-5.22-26.25-12.4-39.75-17.75-14.75-5.85-29.79-10.51-45.68-11.7-15.65-1.18-30.73,1.78-45.63,6.4-6.34,2-12.6,4.21-18.89,6.32a171.19,171.19,0,0,1-22.06,6.13q-2.82.54-5.63.95c-2.4.34-4.79.6-7.17.76-88.66-.13-89-36.85-88.32-43.38.07-.64.14-1,.14-1,4,1.83,7.94,3.48,11.68,5s7.6,2.95,11.16,4.2q4.25,1.5,8.19,2.71c.89.28,1.78.55,2.65.8q5.49,1.62,11,2.83,6.19,1.4,12.41,2.21,5,.66,10,.92c3.72.2,7.47.24,11.24.09.88,0,1.75-.08,2.62-.14,11.52-.81,22.5-3.94,33.53-7.16,12.49-3.64,25.06-7,38-8.76a92.71,92.71,0,0,1,31.55,1.27c3.5.71,7,1.6,10.46,2.63,20.7,6.15,39.2,16.56,56.9,28.62,5,3.44,10.35,6.52,15.38,10a43.41,43.41,0,0,0,29.5,7.59c4-.36,4-.17,3,3.65C1263.63,422.82,1258.3,426.15,1249.29,426Zm47.85,51.6a1.6,1.6,0,0,1-1.24-.46c-7.43-7.11-17.07-10.9-25.25-16.88-4.19-3.06-8.28-6.26-12.51-9.28-1.73-1.23-1.93-2.41-1.18-4.38s1.51-4,2.15-6c2.91,6.38,13.15,18.59,48.07,35.37C1303.93,476.79,1300.42,476.83,1297.14,477.55Zm6.06,6c.33-.1.63-.18.94-.25,2.24-.52,4.56-1.58,6.73-1.33,2.4.27,2,3.45,3.37,5.06,4.57,5.39,10.11,8.15,17.22,7.33C1314.22,498.84,1305.91,488.17,1303.2,483.54Z" transform="translate(-880.88 -120.94)"/><path class="cls-1" d="M1129.23,490.29a59.33,59.33,0,0,1-7.91-.19C1123.86,490.28,1126.5,490.35,1129.23,490.29Z" transform="translate(-880.88 -120.94)"/><path class="cls-1" d="M1243.78,281.34c-.1.38-.19.77-.28,1.15-14.93,9.49-50.46,33.32-58.24,50.07a52.74,52.74,0,0,1-25.9,26.19c-2.72-1.46-4.1-3.93-4.76-6.88-2.64-11.85-1.06-22.74,8.3-31.49,12.49-11.67,27.42-19.45,42.71-26.64a174.39,174.39,0,0,1,34.48-12.16A6.78,6.78,0,0,1,1243.78,281.34Z" transform="translate(-880.88 -120.94)"/><path class="cls-2" d="M1365.09,347.09c-8.2,3.66-17,5-25.78,6.29a196.23,196.23,0,0,1-44.59,1.35c-12.78-1.12-25.41-3.05-37.52-7.56a31,31,0,0,1-10.75-6.78c-1.55-1.5-1.19-2.2.64-2.77,1.26-.4,2.5-.87,3.9-1.36-4.86-4.07-14.43-2.76-19.71,2.44-5.52,5.43-6.54,13.08-2.15,18.73,0,0-.26,42.74,36.42,48.2-2.2.25-4.41.43-6.64.52A32.64,32.64,0,0,1,1242,402c-8.9-4.7-17.14-10.44-25.48-16-17-11.42-35.07-20.85-54.94-26.36a10.29,10.29,0,0,1-2.21-.88,52.74,52.74,0,0,0,25.9-26.19c7.78-16.75,43.31-40.58,58.24-50.07a38.34,38.34,0,0,0,.06,17.41c1.21-3.7,2.13-6.65,3.14-9.57,2.51-7.25,5.75-14.11,11-19.78,18.48-19.81,47-13.36,54.67,12.59,1.29,4.41,3.29,6,7.32,7,9.68,2.31,19,5.64,27.52,10.94,12.8,8,20.34,19.83,23.84,34.31C1372.49,341.17,1370.59,344.63,1365.09,347.09Z" transform="translate(-880.88 -120.94)"/><path class="cls-3" d="M1255.29,511.58l-8.15,1.27c-7-5-10.07-12.67-11.32-16.84,2-.32,4-.66,6-1,2.8-.47,4.39.44,5.48,2.84A58.24,58.24,0,0,0,1255.29,511.58Z" transform="translate(-880.88 -120.94)"/><path class="cls-4" d="M1247.14,512.85,1182.29,523c4.72-6.23,8.37-11.93,9.86-18.71.32-1.45,1.43-1.52,2.63-1.71,13.68-2.15,27.37-4.28,41-6.52C1237.07,500.18,1240.19,507.83,1247.14,512.85Z" transform="translate(-880.88 -120.94)"/><path class="cls-4" d="M1447.88,468.85c.1,5.79-1.45,8.06-7.05,9.4-12.9,3.09-26,5.26-39,7.65-22.67,4.16-45.43,7.87-68.21,11.42-8,1.25-15.95,2.43-23.92,3.74-1.93.31-2.47-.28-2.82-2.21-.92-5.09-1.83-10.24-5.46-14.77l1.8-.54c2.71,4.63,11,15.3,28.26,10.81l.46-.06a9.24,9.24,0,0,0,7.73-6.1,29.64,29.64,0,0,0,2.08-10.81c0-1.58.56-2.15,2.12-2.45,30.23-5.75,60.18-12.79,90.22-19.43,7.63-1.69,11.25.59,13.15,8.22A23.26,23.26,0,0,1,1447.88,468.85Z" transform="translate(-880.88 -120.94)"/><path class="cls-5" d="M1223.1,481.35a46,46,0,0,1-4.26,4.34c-22.81-11.55-33.91-27-37.53-33q1.67-1.56,3.28-3.15c1.2-1.17,1.84-1.16,2.86.27C1198.43,465.19,1207.87,472.91,1223.1,481.35Z" transform="translate(-880.88 -120.94)"/><path class="cls-6" d="M1218.84,485.69a67.09,67.09,0,0,1-10.07,7.37c-4.1,2.52-9.35,2.16-14.13,2.81-1.54.2-1.15-1.73-1.21-2.73a43.45,43.45,0,0,0-9.67-24.38,38.55,38.55,0,0,0-7.63-7.52c-1.55-1.12-2.08-1.91-.41-3.39,1.89-1.68,3.75-3.38,5.59-5.12C1184.93,458.67,1196,474.14,1218.84,485.69Z" transform="translate(-880.88 -120.94)"/><path class="cls-6" d="M1253.79,434.48a32.8,32.8,0,0,1-3,9.66,51.41,51.41,0,0,1-9.61-11.58h11.49C1254.11,432.57,1254,433.5,1253.79,434.48Z" transform="translate(-880.88 -120.94)"/><path class="cls-1" d="M1307.18,476c-3.25.84-6.76.88-10,1.6a1.6,1.6,0,0,1-1.24-.46c-7.43-7.11-17.07-10.9-25.25-16.88-4.19-3.06-8.28-6.26-12.51-9.28-1.73-1.23-1.93-2.41-1.18-4.38s1.51-4,2.15-6C1262,447,1272.26,459.17,1307.18,476Z" transform="translate(-880.88 -120.94)"/><path class="cls-2" d="M1334.73,476.66c-.14,1.61-.4,3.21-.51,4.82-.44,6.23-4.64,8.66-10.31,5.92-4-1.95-6.22-5.3-7.31-9.53-.53-2.08-.74-4.38-2.81-5.63a13.32,13.32,0,0,1-6.61,3.71c-34.92-16.78-45.16-29-48.07-35.37a32.14,32.14,0,0,0,1.62-8c.12-2.06,1.56-2.62,3-3.3,1.86-.85,2.5.78,3.31,1.73,8.51,9.91,18.24,18.28,30.07,24,7.86,3.81,16.3,5.6,24.8,7.17a20.92,20.92,0,0,1,5.87,2C1334.48,467.6,1335.4,469.25,1334.73,476.66Z" transform="translate(-880.88 -120.94)"/><path class="cls-1" d="M1119,556.66q-1.92-2.11-3.85-4.22c-5.27-5.73-5.24-9.2.46-14.26a35.5,35.5,0,0,0,6.58-8c3.4-5.48,7.84-9.92,12.64-14.12,3.63-3.18,6.88-6.74,8.41-11.3-17.68,7-34.12,3.25-49.7-5.93-10.48-6.17-16.85-15.18-19.09-26.8-.27-1.43-.49-2.9-.64-4.41a47,47,0,0,1,0-8.95,53.81,53.81,0,0,1,5.31-18.54c8.22-17.09,20.84-30.6,35.34-42.56,6.6-5.44,14.27-6.84,22.49-7.47,21.15-1.61,41,3.46,60.29,11.34,2.23.91,4.42,1.91,6.61,2.91-11.83-2.78-41.68-8.9-65.79-6.25-18.55,2-23,23.44-33.33,40.26l0,0c-.75,1.56-22.78,47.94,16.63,51.71a59.33,59.33,0,0,0,7.91.19h.09a95.64,95.64,0,0,0,15.34-1.61C1184.94,481.22,1132.32,541.89,1119,556.66Z" transform="translate(-880.88 -120.94)"/><path class="cls-1" d="M1181.42,446.59c-.87.68-1.73,1.38-2.57,2.1-4.52-10.21-.75-24.92-.31-26.56a47,47,0,0,0,4,19.91C1183.48,444.12,1183.2,445.2,1181.42,446.59Z" transform="translate(-880.88 -120.94)"/><path class="cls-2" d="M1300.2,508.24a21.36,21.36,0,0,1-1,2.9,4.16,4.16,0,0,1-4.51,2.51c-2-.16-2.68-1.59-3.11-3.24-1-3.76-2.56-7.09-6.33-9.33-.84,3,.55,5.37,1.23,7.81s1,4.76-.21,7.05c-.91,1.72-2.33,3.1-4.3,3.06-2.12,0-3.49-1.46-4.37-3.42-.76-1.69-.47-3.88-2.24-5.19-1.33,1.11-.79,2.48-.78,3.66,0,2.26-.88,3.9-3.07,4.41s-4.74.33-5.69-2.08c-3.6-9.06-11.11-15.93-14.07-25.33-1-3-3.52-4.49-6.06-5.87-5.48-2.95-11-5.89-16.54-8.69-20.85-10.46-35.39-27-46-47.43-1.45-2.8-2.84-5.64-4.53-8.36,0,.48,0,1-.06,1.43-.44,1.64-4.21,16.35.31,26.56-2,1.76-4,3.63-5.94,5.53-1.69,1.67-3,2.11-5.33.86-10.64-5.69-21.86-7.8-33.75-4.52-.44.12-.9.2-1,1a100.66,100.66,0,0,1,21.67,4.53c11.51,4.06,21.47,10.27,27.76,21.15,8,13.83,6,29.6-4.86,41.6-7.87,8.69-18,13.93-28.27,19-2.6,1.27-5.06,2.73-7.56,4.15-1.72,1-2,1.61-.2,2.79,2.7,1.78,5.29,3.71,7.91,5.62,10.44,7.61,18.81,17.38,27.55,26.76a13.6,13.6,0,0,1,3.24,6.05,2.86,2.86,0,0,1-1.66,3.71c-1.64.73-2.53-.18-3.41-1.42a73,73,0,0,0-11.9-13.93c-.85-.73-1.63-1.65-3-1.75-.48,1.15.19,1.92.88,2.61,4.37,4.41,7,10,10.19,15.2a16.39,16.39,0,0,1,2,9.68,2.85,2.85,0,0,1-1.73,2.76c-1.1.44-2-.31-2.75-1a11.81,11.81,0,0,1-3.28-5.19c-2.89-8.92-9.41-14.76-17.14-20.19-.25,2.69,1.24,4.14,2.25,5.7,2.84,4.35,6,8.53,7.83,13.42,1,2.63,2.71,6.11-.34,7.88s-5.69-1.11-7.34-3.59c-6.13-9.23-12.15-18.54-19.53-26.86q-6-6.82-12.14-13.58c13.3-14.77,65.92-75.44,25.64-68q-3.77.69-7.35,1.08-2.68.28-5.28.42l-1.72.07-1,0h-.09c-2.73.06-5.37,0-7.91-.19-39.41-3.77-17.38-50.15-16.63-51.71l0,0c10.35-16.82,14.78-38.22,33.33-40.26,24.11-2.65,54,3.47,65.79,6.25h0c3.25,1.5,6.48,3,9.8,4.34,3.55,1.42,5.71,3.83,7.57,7.09,8.7,15.25,19,29.23,32.85,40.32a166.3,166.3,0,0,0,26.68,17.95c8.84,4.63,15.51,11.15,18.53,20.91C1300.63,499.3,1301.47,503.71,1300.2,508.24Z" transform="translate(-880.88 -120.94)"/><path class="cls-1" d="M1194.37,576.92c-1.84,1.34-3.53.19-5-1a24.12,24.12,0,0,1-2-2.37c-1.67-1.75-3.11-4-5.14-5.08-9.62-5.15-16.58-13.46-24.77-20.29-1.57-1.31-3.16-2.58-4.83-3.93,3.48-3.27,6.43-2.2,9.72-.33,9.63,5.49,19.26,10.91,26.83,19.26a31.53,31.53,0,0,1,5.69,9C1195.6,573.85,1196.09,575.66,1194.37,576.92Z" transform="translate(-880.88 -120.94)"/><path class="cls-3" d="M1126.33,515.27c-5.89,4.57-9.36,10.23-13.43,15.38a6.27,6.27,0,0,1-4.55,2.65c-1.15.13-2.3.26-3.45.41,3.27-6.3,11.2-14.06,11.2-14.06a31.06,31.06,0,0,1-11.63-2.77c4.08-.53,8.16-1.06,12.24-1.56C1119.62,515,1122.61,515.27,1126.33,515.27Z" transform="translate(-880.88 -120.94)"/><path class="cls-4" d="M1116.1,519.65s-7.93,7.76-11.2,14.06c-9.27,1.07-18.53,2.27-27.79,3.43-1.11.14-2.14,0-2.64-1.12-1.64-3.72-2.91-7.53-2.29-11.69.37-2.49,1.69-3.56,4.38-3.88,9.31-1.1,18.61-2.36,27.91-3.57A31.06,31.06,0,0,0,1116.1,519.65Z" transform="translate(-880.88 -120.94)"/><path class="cls-3" d="M1076.09,546.3c-2.36,4.37-9.1,6.28-14,3.92s-7.68-6.54-9.33-11.49A29,29,0,0,1,1051,528a26,26,0,0,1,4.11-15.25c4.25-6.69,11.51-4.92,15.34-1.8,1.83,1.48,2.14,2.83.08,4.76-8.15,7.68-5.31,23.62,5,28.32C1077.38,544.85,1076.52,545.5,1076.09,546.3Z" transform="translate(-880.88 -120.94)"/><path class="cls-3" d="M1049.26,551.14c-4,.57-7.09-1.1-9.46-4.21-4.48-5.85-4.44-12.65-3.78-19.49a32.43,32.43,0,0,1,2.72-10,8.64,8.64,0,0,1,6.82-5.58l-.37.61a33.78,33.78,0,0,0-4.33,14.06,31,31,0,0,0,.4,8C1043,543.85,1047.32,548.45,1049.26,551.14Z" transform="translate(-880.88 -120.94)"/><path class="cls-7" d="M1004.53,585.38c-15.18,10.52-32.18,13.82-51.13,12.22,12-5.39,23.34-10.54,31.93-19.87-28.59,9-55.74,7.35-81.26-9.29a138.93,138.93,0,0,0,19.47-.77c6.51-.65,13-1.72,19-4.62-8.46-1-16.84-1.79-25.08-3.6-9.64-2.12-18.86-5.23-27.09-10.88-1.69-1.15-1.92-1.69-.21-3.17a102.11,102.11,0,0,1,49.69-23.52c1-.18,1.92-.48,3.64-.92-16-2-30.91.21-45.9,2.43,4.22-7.81,26.36-20.39,41.84-24.39,16.26-4.21,32.48-3.07,48.83-.63-5.31-4.09-11.45-6.12-17.79-7.63-6.12-1.46-11.88-3.55-16.54-8.61a73.79,73.79,0,0,1,23.11-.88A83.54,83.54,0,0,1,997.28,486a27.72,27.72,0,0,0-6.54,1.5c-3.45,1.3-3.88,3.85-1,6.14,1.62,1.31,3.44,2.38,5.34,3.68a84.45,84.45,0,0,0-14.83,3.26,71.72,71.72,0,0,0-30.54,19,14.86,14.86,0,0,0-3.46,5.29c-1,2.91,0,4.25,3,4,1.62-.15,3.24-.42,5-.65-.43,1-1.27,1.22-1.89,1.64a56.67,56.67,0,0,0-9.92,7.94c-2.07,2.23-2.07,4.36,0,6.54a28.69,28.69,0,0,0,3,2.55c3.1,2.36,6.69,3.85,10.38,5.58-3.89.69-4.88,3.18-2.61,6.17a14.39,14.39,0,0,0,2.65,2.58,56.8,56.8,0,0,0,23.14,10.68,84.1,84.1,0,0,0,18.07,1.77,40.84,40.84,0,0,1-3.87,1.62,33.32,33.32,0,0,0-3.79,1.87,3.34,3.34,0,0,0,.5,6.32,10.16,10.16,0,0,0,2,.62A63.47,63.47,0,0,0,1004.53,585.38Z" transform="translate(-880.88 -120.94)"/><path class="cls-8" d="M1032.24,557.64c-7.6,10.14-16.09,19.34-26.39,26.81q-.66.48-1.32.93A63.47,63.47,0,0,1,992,584a10.16,10.16,0,0,1-2-.62,3.34,3.34,0,0,1-.5-6.32,33.32,33.32,0,0,1,3.79-1.87,40.84,40.84,0,0,0,3.87-1.62,84.1,84.1,0,0,1-18.07-1.77,56.8,56.8,0,0,1-23.14-10.68,14.39,14.39,0,0,1-2.65-2.58c-2.27-3-1.28-5.48,2.61-6.17-3.69-1.73-7.28-3.22-10.38-5.58a28.69,28.69,0,0,1-3-2.55c-2.1-2.18-2.1-4.31,0-6.54a56.67,56.67,0,0,1,9.92-7.94c.62-.42,1.46-.62,1.89-1.64-1.78.23-3.4.5-5,.65-3.05.26-4-1.08-3-4a14.86,14.86,0,0,1,3.46-5.29,71.72,71.72,0,0,1,30.54-19A84.45,84.45,0,0,1,995,497.28c-1.9-1.3-3.72-2.37-5.34-3.68-2.84-2.29-2.41-4.84,1-6.14a27.72,27.72,0,0,1,6.54-1.5c13,4.82,24.38,12.89,34.15,23.92.9,1,2.59,2.09,2.17,3.33a25.65,25.65,0,0,1-3.56,6.64c-.54.76-1.93,0-2.89-.4-9-3.51-18.51-3.58-27.91-4.35-1.27-.11-2.79-.56-3.94,1,10.28,1.84,20.15,4.88,30.15,7.35,2.32.57,3.47,1.44,3.2,4.21a27.39,27.39,0,0,0,.55,8.94c.64,2.67-.35,3.83-2.39,4.92a90.89,90.89,0,0,1-23.38,8.24c-3.69.82-7.39,1.61-11.12,2.42.76,1.48,2.06.9,3.13,1a60.32,60.32,0,0,0,31.73-6.76c2.72-1.43,3.69-1,5.72,1.6C1036.06,551.93,1034.68,554.39,1032.24,557.64Z" transform="translate(-880.88 -120.94)"/><path class="cls-9" d="M1385.08,228.55c-14.1,5.23-28.39,9.52-42.67,13.82s-28.48,8.49-42.7,12.8a4.45,4.45,0,0,1-3-.06c-18-6.22-33-1.61-45.34,12.74a14.81,14.81,0,0,1-7.68,4.42c-23.56,6.45-46.63,14.49-69.91,21.85-30.6,9.65-60.5,21.34-91.1,31l52.63-46.56c35.27-14.87,78.14-32.49,80.24-31.27,3.59,2.09,9.31,5.22,17.93,2.35,7.61-2.53,23.11-6.42,29.54-14a8,8,0,0,0,2-3.14,8.8,8.8,0,0,0,.34-1.2c.47-2.2,2.1-1.89,3.49-1.93,10.51-.36,21-.65,31.53-.94,23.45-.66,46.9-1.71,70.37-1.22A117.12,117.12,0,0,1,1385.08,228.55Z" transform="translate(-880.88 -120.94)"/><path class="cls-10" d="M1250.14,222.13l-2.73.76c-2.05.59-4,1.18-6,1.83a3.07,3.07,0,0,1-3.83-1.46c-3.12-4.55-6.1-9.2-9.18-13.78-.92-1.37,0-1.53,1-1.75,2.09-.49,4.19-.94,6.28-1.44l2.1-.58,0,.06L1250,222Z" transform="translate(-880.88 -120.94)"/><path class="cls-11" d="M1255.56,232.43c-7.81,2.39-15.66,4.65-23.51,6.95a4.39,4.39,0,0,1-5.4-1.88c-7.72-11.49-14.84-23.35-21.78-35.32-2-3.53-1.08-5.24,2.86-6.22q6.19-1.56,12.4-3.1c9.29-2.28,11-1.63,16.72,6.88l.06.08-3.22.82c-4,1-7.86,2-11.72,3-2.63.69-3.61,1.91-2,4.7a175.38,175.38,0,0,0,14.82,20.86c1.61,2,3.5,1.58,5.34,1.15q4-.92,7.89-2,2.92-.76,5.82-1.62a6.13,6.13,0,0,1,1.45-.27,3,3,0,0,1,3.33,2.23C1259.46,231.18,1257.27,231.91,1255.56,232.43Z" transform="translate(-880.88 -120.94)"/><path class="cls-12" d="M1215.58,234.26c-2.76.89-5.52,1.8-8.26,2.74l-17-26.8c1.73-.69,3.47-1.38,5.22-2,2.79-1.08,4-.66,5.5,1.94C1205.65,218.17,1210.62,226.07,1215.58,234.26Z" transform="translate(-880.88 -120.94)"/><path class="cls-12" d="M1137.53,266.26q-16.46,8.34-32.43,17.95c-.29-6.55-.74-12.62.4-18.65,1-5,3.73-8.75,7.73-11.87q9.66-7.51,19.82-14.1C1135.71,245.41,1139.86,256.68,1137.53,266.26Z" transform="translate(-880.88 -120.94)"/><path class="cls-10" d="M1137.53,266.26c2.33-9.58-1.82-20.85-4.48-26.67a331.15,331.15,0,0,1,57.25-29.39l17,26.8A530.22,530.22,0,0,0,1137.53,266.26Z" transform="translate(-880.88 -120.94)"/><path class="cls-13" d="M1263.05,235.67c-6.43,7.56-21.93,11.45-29.54,14-8.62,2.87-14.34-.26-17.93-2.35-2.1-1.22-45,16.4-80.24,31.27l-52.63,46.56q-3.54,1.13-7.1,2.21c-14.76,4.49-29.42,9.35-44.56,12.51a7.54,7.54,0,0,1-4.78-.42c2.68-1.43,5.33-2.91,8-4.28,20.29-10.36,39.2-23,58.22-35.42q7.31-4.77,14.74-9.26,18.62-11.22,38-20.72a554,554,0,0,1,69.57-28.29c3-1,5.11-1.18,7.37,1.67,2.53,3.21,6.29,4.16,10.35,3,8.61-2.57,17.22-5.13,25.8-7.79A11.28,11.28,0,0,0,1263.05,235.67Z" transform="translate(-880.88 -120.94)"/><path class="cls-13" d="M1090.75,186.43h0c-10.69,4.87-20.7,11.17-31.94,14.86-18.16,6-34.44,2.47-49.7-9.85,5.59.2,10.47,1.17,15.44,1.05,6.42-.14,12-2.16,16.43-6.88l.39-.42a72,72,0,0,0,23.38-1.29C1098.46,176.76,1091.07,186,1090.75,186.43Z" transform="translate(-880.88 -120.94)"/><path d="M999.87,618.55c-1.39,0-2.57-.32-2.87-1.89a2.82,2.82,0,0,1,2.1-3.49c3.62-1.15,7.31-2.11,10.92-3.29a132.52,132.52,0,0,0,32.09-15.19c1.15-.76,2.38-1.4,3.59-2.06,1.45-.79,2.94-1.07,3.93.58s.14,2.85-1.15,3.88c-.36.29-.69.62-1.07.89-13.67,9.82-28.88,16.22-45.13,20.29A17.61,17.61,0,0,1,999.87,618.55Z" transform="translate(-880.88 -120.94)"/><path class="cls-13" d="M1131.1,233q-9.27,6-18.08,12.8c-5.24,4.06-5.15,4-6.55-2.53-2.64-12.39-5.08-24.83-10.15-36.55a48.88,48.88,0,0,0-6.53-11c-1.16-1.47-1.3-2.33.2-3.62a31.42,31.42,0,0,0,3.44-3.48c1.12-1.29,2.18-2.69,3.27-4.18a5.74,5.74,0,0,0,.63,7.49h0C1106.86,200.22,1124.06,216.7,1131.1,233Z" transform="translate(-880.88 -120.94)"/><path class="cls-9" d="M1213.7,187.86c-4,1.06-6.6,1.84-9.29,2.46a8.25,8.25,0,0,0-6.77,7c-.42,3-1.91,3.94-4.37,4.86-21.82,8.21-42.71,18.15-62.17,30.74-7-16.25-24.24-32.73-33.76-41h0a5.74,5.74,0,0,1-.63-7.49l.11-.16c-2.4.26-4.2,1.32-6.06,2.16.32-.39,7.71-9.67-26-2.52a72,72,0,0,1-23.38,1.29c7.55-8,13.81-17.14,20.93-25.53,7.63-9,15.47-17.76,24.41-25.51,6.44-5.58,13.4-7.55,21.77-5.14,22.18,6.39,42.89,16.08,62.75,27.67a235.42,235.42,0,0,1,39.51,29.12A31.46,31.46,0,0,0,1213.7,187.86Z" transform="translate(-880.88 -120.94)"/><path d="M1308.65,289.34a29.84,29.84,0,0,0-3.77-7.53c-5.17-7.38-13.78-10.95-22-9.13-13.92,3.08-23.71,17.28-22.5,33.63a34.76,34.76,0,0,0,5.28,17.82,22.32,22.32,0,0,0,34,4.76C1309.75,319.71,1313.2,302.6,1308.65,289.34Zm-19.12,13.49c-2.78-.23-4-2-4-4.62a4.75,4.75,0,0,1,5.12-4.45c2.12.49,3.9,1.76,3.92,4.51A4.77,4.77,0,0,1,1289.53,302.83Zm9.37-13.33c-7.11-5.62-14-4.08-18.23,3.88s-4.32,16.37-1.84,24.81a16.8,16.8,0,0,0,9,10.4,20.33,20.33,0,0,1-10.13-1.33c-5.49-2.4-9-7.79-10.6-16.2-1.45-7.77-.7-15.4,3.42-22.42a20,20,0,0,1,13.51-9.93,14.87,14.87,0,0,1,12.27,2.74,15.18,15.18,0,0,1,5.74,9.71C1300.49,291.46,1299.8,290.21,1298.9,289.5Z" transform="translate(-880.88 -120.94)"/><path class="cls-14" d="M1294.57,298.27a4.77,4.77,0,0,1-5,4.56c-2.78-.23-4-2-4-4.62a4.75,4.75,0,0,1,5.12-4.45C1292.77,294.25,1294.55,295.52,1294.57,298.27Z" transform="translate(-880.88 -120.94)"/><path class="cls-14" d="M1296.27,281.45a17.64,17.64,0,0,0-2.2-.29c-12.15-.86-22.82,10.12-23.84,24.51-.61,8.59,2.36,16.46,7.44,21.59-5.49-2.4-9-7.79-10.6-16.2-1.45-7.77-.7-15.4,3.42-22.42a20,20,0,0,1,13.51-9.93A14.87,14.87,0,0,1,1296.27,281.45Z" transform="translate(-880.88 -120.94)"/><path class="cls-15" d="M1302,291.16c-1.52.3-2.21-1-3.11-1.66-7.11-5.62-14-4.08-18.23,3.88s-4.32,16.37-1.84,24.81a16.8,16.8,0,0,0,9,10.4,20.33,20.33,0,0,1-10.13-1.33c-5.08-5.13-8.05-13-7.44-21.59,1-14.39,11.69-25.37,23.84-24.51a17.64,17.64,0,0,1,2.2.29A15.18,15.18,0,0,1,1302,291.16Z" transform="translate(-880.88 -120.94)"/><path d="M1356.39,326.94c-2.32-1-4.3-1.87-6.3-2.68a6.64,6.64,0,0,1-2.85-2.44c-1.17-1.61-1.93-3.37-.27-5s3.43-.69,4.93.55C1354.84,319.82,1356.84,322.69,1356.39,326.94Z" transform="translate(-880.88 -120.94)"/><path class="cls-13" d="M1150.34,363.6c-13.89-.6-42.42-.1-45.58,13.75-1.66,7.28-8.17,13.71-15.42,18.82a171.19,171.19,0,0,1-22.06,6.13q-2.82.54-5.63.95c-2.4.34-4.79.6-7.17.76-88.66-.13-89-36.85-88.32-43.38.07-.64.14-1,.14-1,4,1.83,7.94,3.48,11.68,5s7.6,2.95,11.16,4.2q4.25,1.5,8.19,2.71c.89.28,1.78.55,2.65.8q5.49,1.62,11,2.83,6.19,1.4,12.41,2.21,5,.66,10,.92c3.72.2,7.47.24,11.24.09.88,0,1.75-.08,2.62-.14,11.52-.81,22.5-3.94,33.53-7.16,12.49-3.64,25.06-7,38-8.76A92.71,92.71,0,0,1,1150.34,363.6Z" transform="translate(-880.88 -120.94)"/><path class="cls-9" d="M1265.53,416.07c-1.9,6.75-7.23,10.08-16.24,9.88a37.27,37.27,0,0,1-13.81-2.85,15,15,0,0,1-4.13-2.47c-1.45-1.31-2.86-3.26-2.3-5.06.35-1.13,2.68-.21,4.11-.25,3.57-.1,7.15,0,11.34,0-1.8-1.68-3.65-1.78-5.21-2.38-13.57-5.22-26.25-12.4-39.75-17.75-14.75-5.85-29.79-10.51-45.68-11.7-15.65-1.18-30.73,1.78-45.63,6.4-6.34,2-12.6,4.21-18.89,6.32,7.25-5.11,13.76-11.54,15.42-18.82,3.16-13.85,31.69-14.35,45.58-13.75,3.5.71,7,1.6,10.46,2.63,20.7,6.15,39.2,16.56,56.9,28.62,5,3.44,10.35,6.52,15.38,10a43.41,43.41,0,0,0,29.5,7.59C1266.58,412.06,1266.6,412.25,1265.53,416.07Z" transform="translate(-880.88 -120.94)"/><path class="cls-6" d="M1353.21,362.32a39.85,39.85,0,0,1-5.89,6.95c-13,12.91-28.76,21.1-45.77,27.11a190,190,0,0,1-28.18,8.07c-2.59.49-5.19.89-7.82,1.18-36.68-5.46-36.42-48.2-36.42-48.2.51-4.35,1.66-8.19,4.38-11.29C1241.46,353.1,1272.82,374,1353.21,362.32Z" transform="translate(-880.88 -120.94)"/><path class="cls-5" d="M1354.31,360.31a19.42,19.42,0,0,1-1.1,2c-80.39,11.69-111.75-9.22-119.7-16.18a14.3,14.3,0,0,1,1-1.06c1.09-1,1.89-1.6,3.46-.42,12.21,9.15,26.66,12.42,41.25,14.83,24.51,4.06,49,3,73.39-1.55.74-.14,1.71-.86,2.14.09A3.27,3.27,0,0,1,1354.31,360.31Z" transform="translate(-880.88 -120.94)"/><path class="cls-16" d="M1137.53,266.26a19.42,19.42,0,0,1-1.83,4.78Z" transform="translate(-880.88 -120.94)"/><path class="cls-16" d="M1133.05,239.59c-1.1-2.44-2-3.92-2-3.92" transform="translate(-880.88 -120.94)"/><line class="cls-16" x1="328.12" y1="118.71" x2="326.44" y2="116.06"/><line class="cls-16" x1="309.42" y1="89.26" x2="307.77" y2="86.66"/><path class="cls-3" d="M1331.46,494.35c-17.24,4.49-25.55-6.18-28.26-10.81.33-.1.63-.18.94-.25,2.24-.52,4.56-1.58,6.73-1.33,2.4.27,2,3.45,3.37,5.06C1318.81,492.41,1324.35,495.17,1331.46,494.35Z" transform="translate(-880.88 -120.94)"/><path class="cls-17" d="M1049.41,551.12l-.15,0c-1.94-2.69-6.31-7.29-8-16.55a31,31,0,0,1-.4-8,33.78,33.78,0,0,1,4.33-14.06l.37-.61a11.85,11.85,0,0,1,2.49-.14c-4.57,10.12-5.08,20.38-1.11,30.79a19.37,19.37,0,0,0,3.53,5.89C1052,550.19,1051.15,550.85,1049.41,551.12Z" transform="translate(-880.88 -120.94)"/><path class="cls-18" d="M1045.19,512.52a33.78,33.78,0,0,0-4.33,14.06A30.32,30.32,0,0,1,1045.19,512.52Z" transform="translate(-880.88 -120.94)"/></svg>