<svg id="Capa_5" data-name="Capa 5" xmlns="http://www.w3.org/2000/svg" viewBox="0 0 494.97 495.63"><defs><style>.cls-1{fill:#32273e;}.cls-2{fill:#482c18;}.cls-3{fill:#7b522d;}.cls-4{fill:#86552e;}.cls-5{fill:#81512d;}.cls-6{fill:#664323;}.cls-7{fill:none;stroke:#3d2e45;}.cls-12,.cls-7{stroke-miterlimit:10;}.cls-8{fill:#72491f;}.cls-9{fill:#c38532;}.cls-10{fill:#f2ae4a;}.cls-11{fill:#fdf3c7;}.cls-12{fill:#c06d1a;stroke:#b44918;}.cls-13{fill:#2b371b;}.cls-14{fill:#221a13;}.cls-15{fill:#f5dba8;}.cls-16{fill:#cfb57d;}.cls-17{fill:#81943b;}.cls-18{fill:#576c2e;}.cls-19{fill:#3d2e45;}.cls-20{fill:#503f5a;}.cls-21{fill:#79597b;}.cls-22{fill:#78597c;}.cls-23{fill:#553e5d;}.cls-24{fill:#34221a;}.cls-25{fill:#543625;}.cls-26{fill:#68402c;}.cls-27{fill:#f3b14b;}</style></defs><path id="sombreado_gorro" data-name="sombreado gorro" class="cls-1" d="M3502.57,222.78c-3.14,7.83-84,47.52-84,47.52s-85.83,44.05-154.18,63.35-116,12-116,12l8.59-3c41.63-6.84,76.64-21.69,108.77-37.72,47.16-23.53,88.11-49.6,134.64-56.68,35.13-5.35,61.55-12.11,78.71-17.31a246.6,246.6,0,0,0,23.33-8.09Z" transform="translate(-3046.93 -119.83)"/><g id="escoba"><path class="cls-2" d="M3308.41,507.35h0l.16-.07Zm0,0h0l.16-.07Zm53.7,8.68c-28.64,5.81-44.24,8.38-44.62,8.44-3.35.65-6.82,1.35-10.41,2.06l-2.78.55-4.65.93c-11.84,2.35-24.76,4.81-39.13,7,.89,1.08,1.93,2.28,3.05,3.55,12.41-2,23.63-4.06,33.75-6l5-1h0l5.49-1.1c3.58-.72,7-1.41,10.32-2.05.35-.06,16.49-2.72,46.1-8.74A20.28,20.28,0,0,1,3362.11,516Zm176.75-59.59c-2.37-6-6.08-7.51-15.29-6.12-9.47,1.43-26.39,6.21-57.11,14.9l-15.58,4.39a13.87,13.87,0,0,1,1.1,3.85l15.57-4.39c30.56-8.64,47.4-13.4,56.62-14.79,9-1.37,9.75.51,11,3.63.46,1.18.87,2.28,1.21,3.31.05.14.09.27.13.4a22.53,22.53,0,0,1,1.41,7.68,7.57,7.57,0,0,1-.15,1.2,2.09,2.09,0,0,1-.08.36c0,.16-.08.32-.13.47a3.52,3.52,0,0,1-.15.42,5,5,0,0,1-.41.84c-1.46,2.48-4.38,3.47-5.56,3.78-49.45,12.92-91.56,22.86-125,30.26a23.41,23.41,0,0,1,0,2.65q0,.77-.15,1.47c33.65-7.43,76.16-17.45,126.16-30.51a13,13,0,0,0,8-5.62C3543.37,469.63,3541.41,462.93,3538.86,456.44Z" transform="translate(-3046.93 -119.83)"/><path class="cls-2" d="M3218.24,540.23a27.45,27.45,0,0,0,.9,3.91q-7.57.68-15.59,1.21a11.45,11.45,0,0,0,.25-2.48,11,11,0,0,1-7.43-1.08Q3207.77,541.16,3218.24,540.23Z" transform="translate(-3046.93 -119.83)"/><path class="cls-2" d="M3229.15,514.67c-.62,1.12-1.45,2.54-2.55,4.32-5.31.6-10.3,1.13-14.9,1.61l-4,.4c-6.53.65-12.2,1.17-16.87,1.57,3-5.19,10.67-3.57,10.67-3.57a10.83,10.83,0,0,0-.52-1.35C3208.86,516.89,3218.37,515.92,3229.15,514.67Z" transform="translate(-3046.93 -119.83)"/><path class="cls-2" d="M3354,498.65q-4.21.89-8.39,1.73l-.21,0c-7.87,1.61-15.66,3.11-23.32,4.51l-4.57.83-4.55.81-4.5.78.16-.07-.18.07c-2.84.49-5.64,1-8.43,1.42h0l-1,.17-4.8.79q-6.72,1.08-13.21,2.06c1.39-1.5,2.76-3.06,4.08-4.67q10.83-1.67,22.23-3.62,7.29-1.26,14.76-2.62h0c9.05-1.67,18.28-3.46,27.61-5.41.69.36,1.27.68,1.76,1a5,5,0,0,1,.45.29l.28.19a8.75,8.75,0,0,1,1.26,1.05l.34.36Z" transform="translate(-3046.93 -119.83)"/><path class="cls-3" d="M3308.59,507.28l-.16.07h0Z" transform="translate(-3046.93 -119.83)"/><g id="escoba1"><path class="cls-4" d="M3350,507.35c4.37,7-3.72,6.95-3.72,6.95l-57.91,11.94,10.62-17.3,1-.17h0c2.79-.46,5.59-.93,8.43-1.42h0l4.5-.78,4.55-.81,4.57-.83c7.66-1.4,15.45-2.9,23.32-4.51C3346.22,501.6,3347.67,503.71,3350,507.35Z" transform="translate(-3046.93 -119.83)"/><path class="cls-4" d="M3537.89,469.3,3432.3,494.09l-31.86,7.47c-22.38-.84-48.32-4.62-48.32-4.62l-.28-.19a5,5,0,0,0-.45-.29c-.49-.31-1.07-.63-1.76-1l47.21-10.94a30.15,30.15,0,0,1,3.1,3.33h0c3.07-.8,6.12-1.61,9.17-2.45,1.07-.28,2.14-.58,3.2-.87l.66-.18,3.34-.92,6-1.68,3.59-1,5.3-1.48c-.24-.28-.48-.55-.74-.82h0c-.24-.24-.48-.48-.74-.7a15.1,15.1,0,0,0-1.95-1.48l-.19-.12,23.27-6.53a13.87,13.87,0,0,1,1.1,3.85l15.57-4.39c30.56-8.64,47.4-13.4,56.62-14.79,9-1.37,9.75.51,11,3.63.46,1.18.87,2.28,1.21,3.31.05.14.09.27.13.4A22.53,22.53,0,0,1,3537.89,469.3Z" transform="translate(-3046.93 -119.83)"/><path class="cls-5" d="M3346.24,514.3l-57.91,11.94,10.62-17.3,1-.17h0c2.79-.46,5.59-.93,8.43-1.42h0l4.5-.78,4.55-.81,4.57-.83c7.66-1.4,15.45-2.9,23.32-4.51.85,1.18,2.3,3.29,4.59,6.93C3354.33,514.32,3346.24,514.3,3346.24,514.3Z" transform="translate(-3046.93 -119.83)"/><path class="cls-6" d="M3537.89,469.3a7.57,7.57,0,0,1-.15,1.2c0,.13,0,.24-.08.36s-.08.32-.13.47a3.52,3.52,0,0,1-.15.42,5,5,0,0,1-.41.84c-1.46,2.48-4.38,3.47-5.56,3.78-49.45,12.92-91.56,22.86-125,30.26a23.41,23.41,0,0,1,0,2.65q0,.77-.15,1.47l-42,8.92a20.28,20.28,0,0,1-2.18-3.64c-28.64,5.81-44.24,8.38-44.62,8.44-3.35.65-6.82,1.35-10.41,2.06l-2.78.55-4.65.93c-11.84,2.35-24.76,4.81-39.13,7-1.06-1.25-1.94-2.34-2.6-3.16l0,0L3259,531l.12-.1h0a152.06,152.06,0,0,0,21.77-19.13q6.48-1,13.21-2.06l4.8-.79-10.62,17.3,57.91-11.94s8.09,0,3.72-6.95c-2.29-3.64-3.74-5.75-4.59-6.93l.21,0q4.17-.84,8.39-1.73l-.25-.3-.34-.36a8.75,8.75,0,0,0-1.26-1.05s25.94,3.78,48.32,4.62l31.86-7.47c-.37-9-4.39-12.27-6.35-13.33l5.3-1.48c-.24-.28-.48-.55-.74-.82h0l-.37-.37,8.47-3.58,3.6,17.28Z" transform="translate(-3046.93 -119.83)"/><path class="cls-2" d="M3431.25,479.28l-5.3,1.48-13,3.6-.66.18c-1.06.29-2.13.59-3.2.87-3,.84-6.1,1.65-9.17,2.45h0a30.15,30.15,0,0,0-3.1-3.33q4.85-1.26,9.69-2.56l1.82-.5h0l2.63-.72.26-.07,16.36-4.54.19.12a15.1,15.1,0,0,1,1.95,1.48l.37.33.37.37h0C3430.77,478.73,3431,479,3431.25,479.28Z" transform="translate(-3046.93 -119.83)"/></g><path class="cls-3" d="M3211.83,530.55l-20.5,5.22a22.43,22.43,0,0,1-1.33-4.72c-.69-3.94-.23-6.64.82-8.48,4.67-.4,10.34-.92,16.87-1.57l4-.4a38.53,38.53,0,0,1,4.56,4C3220.29,528.67,3211.83,530.55,3211.83,530.55Z" transform="translate(-3046.93 -119.83)"/><path class="cls-6" d="M3220.46,528.58a16,16,0,0,0-2.22,11.65q-10.48.91-21.87,1.56a11.69,11.69,0,0,1-5-6l20.5-5.22s8.46-1.88,4.43-5.94a38.53,38.53,0,0,0-4.56-4c4.6-.48,9.59-1,14.9-1.61C3225.11,521.44,3223.11,524.58,3220.46,528.58Z" transform="translate(-3046.93 -119.83)"/><line class="cls-7" x1="139.99" y1="431.12" x2="139.99" y2="431.11"/><path class="cls-8" d="M3165.13,526.62a2.63,2.63,0,0,1-.48.77,2.51,2.51,0,0,1-1.85.82,2.44,2.44,0,0,1-.91-.17c-.35-.14-.77-.3-1.25-.47-5.9-2.14-21.4-6.65-38.86-2.8a2.5,2.5,0,0,1-1.08-4.88c17.82-3.93,33.72.24,40.67,2.63,1,.33,1.74.62,2.34.86a2.51,2.51,0,0,1,1.42,3.24Z" transform="translate(-3046.93 -119.83)"/><path class="cls-9" d="M3172.75,556c-1,8.28-5.76,20.63-22,34.28a59.45,59.45,0,0,1-19.45,10.93c7.07-4.83,9.47-9.76,9.63-10.11a2.5,2.5,0,0,0-4.52-2.13c-.25.5-6.17,12.22-28.83,15.74a86.52,86.52,0,0,1-14-1.35c14.31-6.27,25.44-18.67,26-19.29a2.5,2.5,0,0,0-2.59-4c-32.15,9.74-51.67-7.67-57.7-14.31l.42-.2c9.23,3.74,41.84,15,70.45.34l-5.47.26a71.87,71.87,0,0,0,38.41-23.23,34.5,34.5,0,0,0,1.61,3.88c.24.49.48,1,.74,1.41a24.61,24.61,0,0,0,2.43,3.6A17.63,17.63,0,0,0,3172.75,556Z" transform="translate(-3046.93 -119.83)"/><path class="cls-8" d="M3177.85,555.25c-.07.78-.16,1.6-.29,2.46-1.4,9.19-6.82,22.29-23.6,36.37-12.16,10.23-27.81,15.62-45.29,15.62h-1a84,84,0,0,1-24-3.6,2.5,2.5,0,0,1,.28-4.82c10-2.12,19.54-9.11,25.53-14.36a64.27,64.27,0,0,1-10.77.93c-29.36,0-45.24-21.33-45.42-21.59a2.48,2.48,0,0,1,1-3.75,186.88,186.88,0,0,0,20.5-11c-18,.17-26.17-4.27-26.56-4.49a2.47,2.47,0,0,1-1.2-1.54,2.51,2.51,0,0,1,.26-1.93c17.85-29.93,42.06-37.86,55.38-39.9a80,80,0,0,0-22.28-5.69,2.49,2.49,0,0,1-1.69-4.17c.82-.9,8.82-8.79,37.66-8.79,24.84,0,45.79,20.47,52.08,27.29l1.22,1.36a2.51,2.51,0,0,1,.54,2.27,2.45,2.45,0,0,1-.77,1.26,2.51,2.51,0,0,1-1.28.59,2.46,2.46,0,0,1-2.25-.82c-.3-.34-.69-.78-1.18-1.3-5.93-6.45-25.55-25.65-48.36-25.65-14.59,0-23.35,2.11-28.31,4a87,87,0,0,1,25.42,9.28,2.5,2.5,0,0,1-1.37,4.68c-1.46-.09-35.11-1.6-58.78,35.31l-.21.33c4.27,1.47,14.23,3.9,30.75,2.41a2.5,2.5,0,0,1,1.63,4.55l-.52.36-.11.06c-.61.42-1.64,1.1-3,2-3.65,2.35-9.7,6.08-16.54,9.69-1.82,1-3.69,1.9-5.59,2.81l-.42.2c6,6.64,25.55,24,57.7,14.31a2.5,2.5,0,0,1,2.59,4c-.56.62-11.69,13-26,19.29a86.52,86.52,0,0,0,14,1.35c22.66-3.52,28.58-15.24,28.83-15.74a2.5,2.5,0,0,1,4.52,2.13c-.16.35-2.56,5.28-9.63,10.11a59.45,59.45,0,0,0,19.45-10.93c16.25-13.65,21-26,22-34.28.05-.39.09-.78.12-1.15a2.5,2.5,0,0,1,2-2.24,2.7,2.7,0,0,1,.7,0,2.49,2.49,0,0,1,1.84,1.05A2.53,2.53,0,0,1,3177.85,555.25Z" transform="translate(-3046.93 -119.83)"/><path class="cls-8" d="M3142,573.35a2.5,2.5,0,0,1-1.17-4.71c19.44-10.29,23.42-20.31,24-22.21a2.5,2.5,0,1,1,4.76,1.5c-1,3.14-5.81,14.21-26.44,25.13A2.44,2.44,0,0,1,3142,573.35Z" transform="translate(-3046.93 -119.83)"/><path class="cls-2" d="M3205,541.3a2,2,0,0,0-1.71-.37,9.09,9.09,0,0,1-6-.89,9.81,9.81,0,0,1-4.17-5,20.25,20.25,0,0,1-1.21-4.29c-.54-3.11-.35-5.51.58-7.14,2.22-3.85,8.47-2.62,8.53-2.61a2,2,0,0,0,1.87-.59,2,2,0,0,0,.46-1.92,12.64,12.64,0,0,0-.62-1.62c-1.27-2.83-5.16-9.37-13.95-9a12.78,12.78,0,0,0-8.55,4,9.68,9.68,0,0,0-6.78-1.51,13.44,13.44,0,0,0-5.08,2,14.71,14.71,0,0,0-2,1.53,16.35,16.35,0,0,0-1.72,1.83,18.18,18.18,0,0,0-3.34,6.87,23.81,23.81,0,0,0-.56,3c-.08.68-.14,1.38-.17,2.1a41.14,41.14,0,0,0,1.52,12.16c.22.84.46,1.66.72,2.45.07.23.15.45.23.68a34.5,34.5,0,0,0,1.61,3.88c.24.49.48,1,.74,1.41a24.61,24.61,0,0,0,2.43,3.6,17.63,17.63,0,0,0,4.86,4.23,12.3,12.3,0,0,0,1.86.91,12.87,12.87,0,0,0,2.95.82,11.71,11.71,0,0,0,1.77.13,10.72,10.72,0,0,0,4.27-.86,9.66,9.66,0,0,0,4.19-3.42,16.51,16.51,0,0,0,6.08,1.21,13,13,0,0,0,5.57-1.19,10.79,10.79,0,0,0,6.06-7.8,13.34,13.34,0,0,0,.3-2.91A2,2,0,0,0,3205,541.3Zm-23,12a7.27,7.27,0,0,1-4.61.29,8.64,8.64,0,0,1-1.31-.42,9.9,9.9,0,0,1-1.23-.59,15.07,15.07,0,0,1-5.18-5.16c-.26-.39-.5-.8-.74-1.23s-.45-.83-.66-1.27c-.32-.66-.63-1.34-.91-2.06a35,35,0,0,1-1.36-4.16,36.63,36.63,0,0,1-1.37-11.32c0-.49.08-1,.13-1.43s.14-1,.23-1.41a14.26,14.26,0,0,1,3.13-6.78,11.33,11.33,0,0,1,1-1,10.16,10.16,0,0,1,1.08-.86,9.37,9.37,0,0,1,3.93-1.69,4.92,4.92,0,0,1,.84-.07,5.72,5.72,0,0,1,2.84.79c-.38.63-.74,1.29-1.08,2l-.39.86a.36.36,0,0,1,0,.09c-.13.33-.27.67-.4,1a30.48,30.48,0,0,0-1.42,14.22,37.34,37.34,0,0,0,1.94,8.08l0,.13c.1.27.2.54.31.8a22.25,22.25,0,0,0,3.21,5.52,20.07,20.07,0,0,0,1.56,1.75c.3.29.6.58.91.85a19.93,19.93,0,0,0,1.79,1.39A5.82,5.82,0,0,1,3182,553.31Zm15.72-3.35c-2.77,1.3-6.56,1-9.88-.77a15.34,15.34,0,0,1-4.76-4c-.13-.17-.27-.34-.39-.52a18.33,18.33,0,0,1-2.46-4.59.3.3,0,0,1,0-.1,33.89,33.89,0,0,1-1.77-7.32,26.48,26.48,0,0,1,1.2-12.34,16.9,16.9,0,0,1,2.48-4.56,9.39,9.39,0,0,1,6.89-3.94,10,10,0,0,1,9.23,5c-3,.1-7,1-9.16,4.81-1.4,2.46-1.76,5.77-1,9.81a25.09,25.09,0,0,0,1.45,5.15,15.92,15.92,0,0,0,2.07,3.63,12.48,12.48,0,0,0,3.85,3.37,12.67,12.67,0,0,0,6.16,1.55A6.79,6.79,0,0,1,3197.74,550Z" transform="translate(-3046.93 -119.83)"/><path class="cls-6" d="M3184.23,551.65a5.82,5.82,0,0,1-2.21,1.66,7.27,7.27,0,0,1-4.61.29,8.64,8.64,0,0,1-1.31-.42,9.9,9.9,0,0,1-1.23-.59,15.07,15.07,0,0,1-5.18-5.16c-.26-.39-.5-.8-.74-1.23s-.45-.83-.66-1.27c-.32-.66-.63-1.34-.91-2.06a8.91,8.91,0,0,0,9.38-.73,22.25,22.25,0,0,0,3.21,5.52,20.07,20.07,0,0,0,1.56,1.75c.3.29.6.58.91.85A19.93,19.93,0,0,0,3184.23,551.65Z" transform="translate(-3046.93 -119.83)"/><path class="cls-6" d="M3201.56,545.09a6.79,6.79,0,0,1-3.82,4.87c-2.77,1.3-6.56,1-9.88-.77a15.34,15.34,0,0,1-4.76-4c-.13-.17-.27-.34-.39-.52,2-.25,7.14-1.2,8.84-4.48a12.48,12.48,0,0,0,3.85,3.37A12.67,12.67,0,0,0,3201.56,545.09Z" transform="translate(-3046.93 -119.83)"/><path class="cls-3" d="M3189.48,536.54a15.92,15.92,0,0,0,2.07,3.63c-1.7,3.28-6.83,4.23-8.84,4.48a18.33,18.33,0,0,1-2.46-4.59.3.3,0,0,1,0-.1,33.89,33.89,0,0,1-1.77-7.32,26.48,26.48,0,0,1,1.2-12.34,16.9,16.9,0,0,1,2.48-4.56,9.39,9.39,0,0,1,6.89-3.94,10,10,0,0,1,9.23,5c-3,.1-7,1-9.16,4.81-1.4,2.46-1.76,5.77-1,9.81A25.09,25.09,0,0,0,3189.48,536.54Z" transform="translate(-3046.93 -119.83)"/><path class="cls-3" d="M3176.45,541.34c.1.27.2.54.31.8a8.91,8.91,0,0,1-9.38.73,35,35,0,0,1-1.36-4.16,36.63,36.63,0,0,1-1.37-11.32c0-.49.08-1,.13-1.43s.14-1,.23-1.41a14.26,14.26,0,0,1,3.13-6.78,11.33,11.33,0,0,1,1-1,10.16,10.16,0,0,1,1.08-.86,9.37,9.37,0,0,1,3.93-1.69,4.92,4.92,0,0,1,.84-.07,5.72,5.72,0,0,1,2.84.79c-.38.63-.74,1.29-1.08,2l-.39.86a.36.36,0,0,1,0,.09c-.13.33-.27.67-.4,1a30.48,30.48,0,0,0-1.42,14.22,37.34,37.34,0,0,0,1.94,8.08Z" transform="translate(-3046.93 -119.83)"/><path class="cls-10" d="M3162.88,542.18c.07.23.15.45.23.68a71.87,71.87,0,0,1-38.41,23.23l5.47-.26c-28.61,14.62-61.22,3.4-70.45-.34,1.9-.91,3.77-1.86,5.59-2.81,6.84-3.61,12.89-7.34,16.54-9.69,1.36-.87,2.39-1.55,3-2l.11-.06c7.73-4.75,23.56-13.16,23.56-13.16a110.53,110.53,0,0,0-55.21,5.51c23.67-36.91,57.32-35.4,58.78-35.31a2.5,2.5,0,0,0,1.37-4.68A87,87,0,0,0,3088,494c5-1.93,13.72-4,28.31-4,22.81,0,42.43,19.2,48.36,25.65a18.18,18.18,0,0,0-3.34,6.87c-6.95-2.39-22.85-6.56-40.67-2.63a2.5,2.5,0,0,0,1.08,4.88c17.46-3.85,33,.66,38.86,2.8a41.14,41.14,0,0,0,1.52,12.16C3162.38,540.57,3162.62,541.39,3162.88,542.18Z" transform="translate(-3046.93 -119.83)"/><path class="cls-9" d="M3108.52,537.8S3092.69,546.21,3085,551l-.11.06c-1.26.78-2.29,1.45-3,2,0,0-9.78-5-17.61-5.64a70.86,70.86,0,0,1-14.22-2.67s1.15-.55,3.29-1.37A110.53,110.53,0,0,1,3108.52,537.8Z" transform="translate(-3046.93 -119.83)"/></g><g id="rana"><g id="ojo"><path class="cls-11" d="M3409.2,300.78c-1,13.68-9.74,24.57-20.4,26.61,7.66-2.85,13.62-11.38,14.41-21.84.89-11.76-5-22.07-13.71-25a16,16,0,0,1,6.21-.77,16.9,16.9,0,0,1,11.17,5.66A33.52,33.52,0,0,1,3409.2,300.78Z" transform="translate(-3046.93 -119.83)"/><path class="cls-12" d="M3413.21,305.55c-.78,10.38-6.66,18.86-14.24,21.77l-.17.07h0a15.94,15.94,0,0,1-6.73,1,15.75,15.75,0,0,1-4-.84c-5-1.75-9.1-6-11.43-11.55l0,0a28.75,28.75,0,0,1-2.06-13.32c.81-10.72,7-19.4,15-22a16,16,0,0,1,6.21-.77,16.9,16.9,0,0,1,11.17,5.66,25.61,25.61,0,0,1,6.32,15.38A29.48,29.48,0,0,1,3413.21,305.55Z" transform="translate(-3046.93 -119.83)"/><path class="cls-13" d="M3407.07,277.54c-4.69-6.65-11.32-10.62-18.69-11.18s-14.51,2.37-20.15,8.23a36.11,36.11,0,0,0-9.61,22.35c-1.36,18,9.76,33.58,24.81,34.72.59,0,1.17.07,1.75.07a24.35,24.35,0,0,0,13.79-4.41c7.77-5.3,13.36-14.93,14.22-26.24a1.77,1.77,0,0,0,0-.23A36,36,0,0,0,3407.07,277.54Zm2.13,23.24c-1,13.68-9.74,24.57-20.4,26.61h0l-.72.11a19.33,19.33,0,0,1-2.85.22c-.49,0-1,0-1.46-.06-7.18-.55-13.32-5.07-17.12-11.71l0,0a32.85,32.85,0,0,1-4-18.69,32.18,32.18,0,0,1,8.5-19.88c4.42-4.59,9.87-7.06,15.51-7.06.49,0,1,0,1.46.05,6.15.47,11.73,3.84,15.72,9.49a28.43,28.43,0,0,1,3.08,5.63A33.52,33.52,0,0,1,3409.2,300.78Z" transform="translate(-3046.93 -119.83)"/><path class="cls-11" d="M3406.88,285.47a16.9,16.9,0,0,0-11.17-5.66,16,16,0,0,0-6.21.77c-7.92,2.63-14.16,11.31-15,22a28.75,28.75,0,0,0,2.06,13.32l0,0c2.33,5.56,6.41,9.8,11.43,11.55a19.33,19.33,0,0,1-2.85.22c-.49,0-1,0-1.46-.06-7.18-.55-13.32-5.07-17.12-11.71l0,0a32.85,32.85,0,0,1-4-18.69,32.18,32.18,0,0,1,8.5-19.88c4.42-4.59,9.87-7.06,15.51-7.06.49,0,1,0,1.46.05,6.15.47,11.73,3.84,15.72,9.49A28.43,28.43,0,0,1,3406.88,285.47Z" transform="translate(-3046.93 -119.83)"/><ellipse class="cls-14" cx="3393.8" cy="304.09" rx="18.92" ry="14.93" transform="translate(-213.23 3545.3) rotate(-85.66)"/><ellipse class="cls-11" cx="3401.32" cy="292.06" rx="5.92" ry="4.54" transform="translate(-194.28 3541.69) rotate(-85.66)"/></g><path class="cls-13" d="M3466.89,328.4c-1.34,1-3.32-.19-6-2.12s-3-4.53-2-5.55c1.17-1.26,3.26-.84,5.41,1.15C3465.63,323.12,3468.23,327.39,3466.89,328.4Z" transform="translate(-3046.93 -119.83)"/><path class="cls-15" d="M3369.6,435.23a62.63,62.63,0,0,1-3.24,14.36c-.32.9-.65,1.78-1,2.67-.54,1.37-1.14,2.72-1.8,4.06q-1.42,2.94-3.16,5.78a57,57,0,0,1-5.21-3.9c-4.81-4.12-8.31-6.94-10.86-9-5.37-4.32-6.29-5.11-7.14-7.55l-.43-1.25-1.16-3.37c4.71-4.85,5.64-8.87,5.09-11.94l0,0c.55.47,1.17,1,1.86,1.44.26.19.54.38.82.55a34.12,34.12,0,0,0,4.89,2.67l.7.31c.6.26,1.24.53,1.91.78s1.55.57,2.38.85c1.74.58,3.66,1.13,5.77,1.63.61.14,1.23.29,1.87.42q1.45.32,3,.6l2.28.38.81.12C3367.87,435,3368.72,435.12,3369.6,435.23Z" transform="translate(-3046.93 -119.83)"/><path class="cls-16" d="M3446,381c-2.1,1.46-4.38,3-6.83,4.47A226.85,226.85,0,0,1,3380,411.3h0c-3.2-1.23-8.61-3.57-9.56-5.68C3370.4,405.62,3394.57,407.45,3446,381Z" transform="translate(-3046.93 -119.83)"/><path class="cls-15" d="M3470.05,356.29c-3.12,6.21-9.8,14.81-24,24.68l0,0c-51.43,26.46-75.6,24.63-75.6,24.63.95,2.11,6.36,4.45,9.56,5.68-3.12.84-5.59,1.41-7.3,1.77s-2.62.51-2.67.52a1.92,1.92,0,0,0-1.2.68,2.35,2.35,0,0,0-.19.25,2,2,0,0,0-.3,1.07c-7.94-2.57-22.67-9.87-37.78-34.85-12.08-20-4.52-36.22.45-43.54a11.55,11.55,0,0,0,.15,2.53,18.64,18.64,0,0,1,8.09-8.52c8.71,19,38.81,30,81.17,30,5.41,0,11-.18,16.83-.55C3452.07,359.75,3462.6,358.15,3470.05,356.29Z" transform="translate(-3046.93 -119.83)"/><path class="cls-17" d="M3434.31,284.56c-1.54-.63-3-1.21-4.27-1.76-.83-.35-1.9-.79-3.18-1.3s-3.08-1.17-5-1.84a41,41,0,0,0-2.7-5.13c-4.78-7.72-14.62-18.1-33.37-19.49-12.25-.92-20.88,4.36-26.79,10.87a44.22,44.22,0,0,0-3.35,4.19,55.79,55.79,0,0,0-7.94,16.8,2,2,0,0,1-1.95,1.54,2,2,0,0,1-.47-.06,2,2,0,0,1-1.47-2.41c0-.07.27-1.07.82-2.72-4.4,2.08-15.74,7.71-36.44,19.62-22.62,13-37.52,35.6-42.19,43.38a63,63,0,0,0,7.38,25.5,2,2,0,0,1,.15,1.75l-.09.21h0L3311,402.88c-5.26-2-14.61-4.64-31.12-7.73-42.52-8-63.19,19-72.78,41.87s-2,44,12.52,52.05c9.33,5.17,19.64,2.45,25.79-.13a116.19,116.19,0,0,1,11.41-11.26,2,2,0,1,1,2.56,3.07c-.17.15-17.54,14.73-24.45,31a13.87,13.87,0,0,1-1,2.35c-.6,1.22-1.41,2.69-2.36,4.31-2.21,3.77-5.16,8.34-7.83,12.38a12.46,12.46,0,0,0-1.64,9.07,25.23,25.23,0,0,0,1,3.9c3.76,11.23,15.67,24.47,23.76,33.47,3,3.34,5.6,6.22,7.11,8.28a109.27,109.27,0,0,1,7.23,12.15c3.05,5.61,7.22,13.31,9.64,13.79.11,0,.27,0,.6-.22,0,0,2.18-2.44-5.69-19.71-4.29-9.4-9.34-18.36-9.39-18.45a2,2,0,0,1,2.59-2.79c8.86,4.16,15.94,15.53,21.62,24.66,2.79,4.48,6.6,10.58,8.21,11a7.16,7.16,0,0,0,1.3-3.1c4.31-16.77-23.32-38.4-23.6-38.61a2,2,0,0,1,1.95-3.45c14.59,5.68,22.2,14.14,27.23,19.74s6.33,6.59,8.83,5a2.17,2.17,0,0,0,1.07-2.21c-.45-6.93-16.7-21.24-25.88-25.61a28.05,28.05,0,0,1-3.17-1.8,44.72,44.72,0,0,1-4-2.92,105.85,105.85,0,0,1-12.11-11.89c-6.19,1.47-12.75-1.36-15.78-3h0a2,2,0,0,1-1.72-1,1.86,1.86,0,0,1-.22-.54,2,2,0,0,1,1.47-2.41,35.66,35.66,0,0,0,9.38-4.22s0,0,0,0a2.78,2.78,0,0,1,.32-.26,152.3,152.3,0,0,0,20.37-16.93c1.51-1.5,3-3.07,4.5-4.71,11-12.15,20.44-27.83,15.46-42.84a22.47,22.47,0,0,0-11.76-13.45c-19.5-9.67-53.61,1.82-53.95,1.94a2,2,0,0,1-1.3-3.79c1.46-.5,36-12.14,57-1.74a26.37,26.37,0,0,1,11.51,10.67c1.07-.41,2.12-.81,3.14-1.22a145.74,145.74,0,0,1-14-30.74,2,2,0,1,1,3.83-1.16,146.85,146.85,0,0,0,14,30.36c6.57,10.63,15.46,21.12,26.63,26l4.65,2,4.19,1.82,4.18,1.82c7.68,3.37,10.92,4.95,12.9,6.55a3.65,3.65,0,0,1,.36.31,14.59,14.59,0,0,1,2.26,2.63l.37.52.05.07c.33.48.7,1,1.15,1.61,1.64,2.23,2.69,5.3,3.8,8.55a49.39,49.39,0,0,0,2.91,7.23,10.93,10.93,0,0,0,2.74,3.53,6.87,6.87,0,0,0,4.95,1.44A4.06,4.06,0,0,0,3375,520a2.44,2.44,0,0,0,1.32-1.08,5.15,5.15,0,0,0,.63-1.81,8.08,8.08,0,0,0,.13-1.15,16.68,16.68,0,0,0-.1-2.95c-.55-5.16-2.86-11.9-4.8-16.24a2,2,0,0,1,.35-2.16l2.2-.51a2,2,0,0,1,1.1,1c.59,1.31,4.23,9.64,5.07,17a23.4,23.4,0,0,1,.14,4.06,11.28,11.28,0,0,1-.77,3.66c.2.17.4.33.6.47a5.88,5.88,0,0,0,5,1,6.52,6.52,0,0,0,4.43-2.92,5,5,0,0,0,.36-.73,9,9,0,0,0,.54-3.68l.35-.07a1.41,1.41,0,0,0-.36-.24,19.59,19.59,0,0,0-.58-3.65,50.21,50.21,0,0,0-6-13.47,2,2,0,0,1,3.37-2.16,55.35,55.35,0,0,1,6.49,14.79,23.82,23.82,0,0,1,.62,3.95,14.86,14.86,0,0,1-.08,3.41,4.09,4.09,0,0,0,2.39-.07,6.55,6.55,0,0,0,4-3.38,7.52,7.52,0,0,0,.54-1.45h0a13.8,13.8,0,0,0,.44-4.19,39.16,39.16,0,0,0-2.34-11.34,20.16,20.16,0,0,0-4.44-7.2,35,35,0,0,0-3.47-3.25h0c-5.11-4.22-11.92-7.85-18.95-11.6-3.93-2.1-7.92-4.23-11.66-6.52-1.15-.69-2.28-1.4-3.37-2.14a57.28,57.28,0,0,1-5.63-4.21c-4.77-4.08-8.24-6.88-10.78-8.92-5.49-4.43-7.15-5.77-8.4-9.36l-.43-1.25q-.3-.88-.6-1.74c-7-20.06-12.42-33.69-16.24-40.52a2,2,0,1,1,3.49-1.95c3.83,6.85,9.19,20.14,16,39.53,4.71-4.85,5.64-8.87,5.09-11.94l0,0a41.47,41.47,0,0,0-1.14-6.32l30.13,5.15a41,41,0,0,0-1.31-7.79,1.91,1.91,0,0,1-.1-.58c-7.94-2.57-22.67-9.87-37.78-34.85-12.08-20-4.52-36.22.45-43.54.12-3.2,1.42-8.6,8.43-11.18,10.31-3.8,13.78,2.56,13.78,2.56a24.48,24.48,0,0,0-10.31,1c9,19.6,45.43,30.19,94.09,27.12,17.22-1.09,28.1-3,35-5,1.73-.5,3.2-1,4.45-1.5,6.42-2.52,7.17-4.78,7.24-5a1.7,1.7,0,0,1,0-.22C3487.8,306.34,3453,292.17,3434.31,284.56Zm-21.12,16.52c-1.31,17.3-13.69,30.65-28,30.65-.58,0-1.16,0-1.75-.07-15-1.14-26.17-16.72-24.81-34.72a36.11,36.11,0,0,1,9.61-22.35c5.64-5.86,12.8-8.78,20.15-8.23s14,4.53,18.69,11.18A36.1,36.1,0,0,1,3413.19,301.08Zm53.7,27.32c-1.34,1-3.32-.19-6-2.12s-3-4.53-2-5.55c1.17-1.26,3.26-.84,5.41,1.15C3465.63,323.12,3468.23,327.39,3466.89,328.4Z" transform="translate(-3046.93 -119.83)"/><path class="cls-17" d="M3447.84,478.87c-.3,1.69-.53,3.21-.74,4.56-1.19,7.78-1.43,8.51-5.86,8.94-.65.05-1.21-2.18-1.72-4.16a30.71,30.71,0,0,0-4.11-10.09h0l-.31-.44c-.33-.45-.68-.9-1.07-1.34l-.37-.39c-.14-.16-.29-.32-.45-.47s-.4-.4-.62-.59c-.86-1.11-2.52-3-3.78-3h-.05a2.36,2.36,0,0,0-.44.07l-20.55,5.57-.43-.42-2.57-2.56-1.74-1.72a2.1,2.1,0,0,0-.41-.31h0a12.21,12.21,0,0,0-3.14-2.19c-20.38-8-19.63-19.16-19.24-24.63.25-3.47,3.06-6.68,5.09-8.57,7.75,8.11,18.13,16,30.79,19.13,19.65,4.85,28,9.2,30.82,14.46h0a10.09,10.09,0,0,1,1.14,3.83A16.36,16.36,0,0,1,3447.84,478.87Z" transform="translate(-3046.93 -119.83)"/><g id="sombras"><path class="cls-18" d="M3350.62,270.54a63.31,63.31,0,0,0-6,12.71c-4.4,2.08-15.74,7.71-36.44,19.62-22.62,13-37.52,35.6-42.19,43.38-.06-.74-.1-1.5-.12-2.27-.65-21.18,9.9-39.38,31.34-54.07A115.4,115.4,0,0,1,3350.62,270.54Z" transform="translate(-3046.93 -119.83)"/><path class="cls-18" d="M3402.6,472.52a2.15,2.15,0,0,0-.7-.24,59.83,59.83,0,0,1-28.26-12.1,59.14,59.14,0,0,1-5.31-4.68q1-2.36,1.81-4.58a65,65,0,0,0,3.48-28.48,105.53,105.53,0,0,0,11.69,14.69c-2,1.89-4.84,5.1-5.09,8.57-.39,5.47-1.14,16.66,19.24,24.63A12.21,12.21,0,0,1,3402.6,472.52Z" transform="translate(-3046.93 -119.83)"/><path class="cls-18" d="M3311,402.88c-5.26-2-14.61-4.64-31.12-7.73-42.52-8-63.19,19-72.78,41.87s-2,44,12.52,52.05c9.33,5.17,19.64,2.45,25.79-.13-4.84,5.45-10.16,12.44-13.59,20-4.28-.56-17.73-3.12-26.8-13.76-7.1-8.33-10-19.77-8.58-34,5.37-54.27,44.18-77,75.8-86.45a2.08,2.08,0,0,0,1.2-1Z" transform="translate(-3046.93 -119.83)"/><path class="cls-16" d="M3334.45,488.64a151.79,151.79,0,0,1-27.2,14.86q-11.39,2-22.23,3.62c10.24-12.38,18.09-27.82,13-43.14a27.44,27.44,0,0,0-2.27-5.11c1.07-.41,2.12-.81,3.14-1.22,6.94,11.35,16.52,22.74,28.88,28.1l4.65,2Z" transform="translate(-3046.93 -119.83)"/><path class="cls-18" d="M3260.45,541.11c-6.19,1.47-12.75-1.36-15.78-3a2.4,2.4,0,0,0,.46,0,37.69,37.69,0,0,0,9.42-4c.36.47.82,1,1.34,1.68.83,1,1.84,2.23,3,3.57Z" transform="translate(-3046.93 -119.83)"/><path class="cls-16" d="M3369.6,435.23c-.88-.11-1.73-.23-2.56-.35l-.81-.12-2.28-.38q-1.57-.28-3-.6c-.64-.13-1.27-.27-1.87-.42-2.11-.5-4-1.05-5.77-1.63-.83-.28-1.63-.56-2.38-.85s-1.31-.52-1.91-.78l-.7-.31a34.12,34.12,0,0,1-4.89-2.67l-.82-.55c-.69-.48-1.31-1-1.86-1.44a41.47,41.47,0,0,0-1.14-6.32l30.13,5.15A57.92,57.92,0,0,1,3369.6,435.23Z" transform="translate(-3046.93 -119.83)"/><path class="cls-18" d="M3297.32,532.55c-4,6.89-10.84,14.81-20.28,18.87a92.82,92.82,0,0,1-13.47-12.83C3276,536.64,3287.2,534.53,3297.32,532.55Z" transform="translate(-3046.93 -119.83)"/></g><path class="cls-13" d="M3435.82,280.85c-1.52-.62-2.94-1.19-4.21-1.73-1.55-.66-3.89-1.61-6.9-2.7-4.25-8.42-15.08-23.62-38.61-25.37-15.72-1.17-26,6.68-32.54,15.22-19.11,1.59-39.49,7.28-58.57,20.34-28.28,19.38-33.59,42.06-33.07,57.67a65.72,65.72,0,0,0,1.12,10c.28,1.49.6,2.92.95,4.27a66.31,66.31,0,0,0,4.8,13.06q-4.26,1.35-8.3,2.91h0A132.92,132.92,0,0,0,3248,380h0c-2.78,1.4-5.45,2.89-8,4.45a102.89,102.89,0,0,0-22.25,18,92.23,92.23,0,0,0-12.9,17.68c-.93,1.66-1.82,3.36-2.65,5.09a105.16,105.16,0,0,0-9.69,35.59c-1.52,15.34,1.68,27.78,9.52,37,9.33,10.95,22.52,14.11,28.2,15-.27.52-.61,1.16-1.06,1.95-.62,1.12-1.45,2.54-2.55,4.32-1.49,2.45-3.49,5.59-6.14,9.59a16,16,0,0,0-2.22,11.65,27.45,27.45,0,0,0,.9,3.91c3.81,12.45,16.26,26.3,24.77,35.76,2.94,3.26,5.47,6.08,6.87,8a107,107,0,0,1,6.94,11.68c4.35,8,8.11,15,12.38,15.81a4.58,4.58,0,0,0,.9.09,4.7,4.7,0,0,0,3-1.13c2.22-1.82,3.71-6.25-4.6-24.49-1.78-3.89-3.68-7.7-5.31-10.87,4.94,5,9.35,12,13.11,18.08,5.06,8.14,8.41,13.5,12.24,12.92,2.77-.43,3.91-3.68,4.53-6.08,2.9-11.28-5.69-23.64-13.6-32.17a72.63,72.63,0,0,1,12.33,11.53c4.49,5,8.36,9.29,14,5.65a6.13,6.13,0,0,0,2.89-5.83c-.61-9.27-18.88-24.54-28.16-29l-.34-.17c10.4-5.36,17.51-14.78,21.28-22.38l-5,1c-4,6.89-10.84,14.81-20.28,18.87a92.82,92.82,0,0,1-13.47-12.83c-1.12-1.27-2.16-2.47-3.05-3.55-1.06-1.25-1.94-2.34-2.6-3.16l0,0L3259,531l.12-.1h0a152.06,152.06,0,0,0,21.77-19.13c1.39-1.5,2.76-3.06,4.08-4.67,10.24-12.38,18.09-27.82,13-43.14a27.44,27.44,0,0,0-2.27-5.11,26.37,26.37,0,0,0-11.51-10.67c-21-10.4-55.56,1.24-57,1.74a2,2,0,0,0,1.3,3.79c.34-.12,34.45-11.61,53.95-1.94a22.47,22.47,0,0,1,11.76,13.45c5,15-4.46,30.69-15.46,42.84-1.48,1.64-3,3.21-4.5,4.71a152.3,152.3,0,0,1-20.37,16.93,2.78,2.78,0,0,0-.32.26s0,0,0,0a35.66,35.66,0,0,1-9.38,4.22,2,2,0,0,0-1.47,2.41,1.86,1.86,0,0,0,.22.54s.63.41,1.72,1h0a2.4,2.4,0,0,0,.46,0,37.69,37.69,0,0,0,9.42-4c.36.47.82,1,1.34,1.68.83,1,1.84,2.23,3,3.57l1.56,1.79A105.85,105.85,0,0,0,3272.56,553a44.72,44.72,0,0,0,4,2.92,28.05,28.05,0,0,0,3.17,1.8c9.18,4.37,25.43,18.68,25.88,25.61a2.17,2.17,0,0,1-1.07,2.21c-2.5,1.62-3.91.5-8.83-5s-12.64-14.06-27.23-19.74a2,2,0,0,0-1.95,3.45c.28.21,27.91,21.84,23.6,38.61a7.16,7.16,0,0,1-1.3,3.1c-1.61-.47-5.42-6.57-8.21-11-5.68-9.13-12.76-20.5-21.62-24.66a2,2,0,0,0-2.59,2.79c.05.09,5.1,9,9.39,18.45,7.87,17.27,5.72,19.69,5.69,19.71-.33.27-.49.24-.6.22-2.42-.48-6.59-8.18-9.64-13.79a109.27,109.27,0,0,0-7.23-12.15c-1.51-2.06-4.11-4.94-7.11-8.28-8.09-9-20-22.24-23.76-33.47a25.23,25.23,0,0,1-1-3.9,12.46,12.46,0,0,1,1.64-9.07c2.67-4,5.62-8.61,7.83-12.38.95-1.62,1.76-3.09,2.36-4.31a13.87,13.87,0,0,0,1-2.35c6.91-16.27,24.28-30.85,24.45-31a2,2,0,1,0-2.56-3.07,116.19,116.19,0,0,0-11.41,11.26c-4.84,5.45-10.16,12.44-13.59,20-4.28-.56-17.73-3.12-26.8-13.76-7.1-8.33-10-19.77-8.58-34,.08-.85.18-1.69.28-2.52s.2-1.66.32-2.48c.09-.63.18-1.25.29-1.87q0-.37.12-.75c.09-.61.2-1.22.31-1.82,0-.17.06-.34.1-.51.09-.53.2-1.06.31-1.58s.16-.82.25-1.22.15-.7.24-1,.19-.85.29-1.26.17-.71.26-1.06c.14-.6.3-1.19.46-1.78a1.68,1.68,0,0,1,.09-.32c.17-.64.35-1.27.54-1.9.26-.92.54-1.83.84-2.72s.51-1.53.78-2.28c.8-2.25,1.66-4.43,2.6-6.54.25-.59.52-1.18.8-1.76.14-.31.29-.61.44-.91.23-.49.46-1,.71-1.45.33-.67.68-1.33,1-2s.67-1.24,1-1.85.7-1.21,1.06-1.81h0l1-1.55c.32-.51.65-1,1-1.52s.66-1,1-1.49.68-1,1-1.46c1.37-1.93,2.82-3.78,4.33-5.55.67-.79,1.35-1.56,2-2.32.48-.54,1-1.07,1.48-1.59.28-.29.55-.58.83-.86s.63-.64.94-.94.7-.7,1.06-1c1-.95,2-1.86,3-2.75.46-.41.93-.81,1.39-1.2l.81-.68q3.51-2.91,7.2-5.43c.44-.31.89-.61,1.35-.91s.9-.6,1.36-.89c3.18-2,6.42-3.91,9.69-5.59h0c1.13-.58,2.26-1.14,3.39-1.67l1.45-.68,1-.47c.56-.26,1.12-.5,1.68-.74h0l1.46-.63c2.23-.93,4.46-1.8,6.68-2.59l1.49-.52c.69-.24,1.38-.48,2.07-.7,1.32-.44,2.63-.85,3.93-1.24a2.08,2.08,0,0,0,1.2-1h0l.09-.21a2,2,0,0,0-.15-1.75,3.07,3.07,0,0,1-.17-.3,2.18,2.18,0,0,1-.12-.22c-.1-.16-.2-.36-.32-.59v0l-.33-.65c-.12-.24-.26-.51-.39-.8l-.35-.75c-.12-.25-.24-.51-.36-.79-.64-1.47-1.38-3.29-2.09-5.41l-.21-.64c-.21-.65-.42-1.32-.62-2h0q-.17-.51-.3-1.05c-.12-.44-.24-.88-.35-1.34-.16-.62-.31-1.25-.45-1.9a.43.43,0,0,0,0-.11c-.22-1-.43-2.09-.61-3.18,0-.22-.07-.43-.1-.65a1.38,1.38,0,0,1,0-.2,6,6,0,0,1-.09-.61s0-.08,0-.12,0-.08,0-.12c-.08-.63-.16-1.27-.23-1.92s-.14-1.4-.19-2.11-.1-1.5-.12-2.27c-.65-21.18,9.9-39.38,31.34-54.07a115.4,115.4,0,0,1,53.37-19.37,63.31,63.31,0,0,0-6,12.71c-.55,1.65-.81,2.65-.82,2.72a2,2,0,0,0,1.47,2.41,2,2,0,0,0,.47.06,2,2,0,0,0,1.95-1.54,55.79,55.79,0,0,1,7.94-16.8,44.22,44.22,0,0,1,3.35-4.19c5.91-6.51,14.54-11.79,26.79-10.87,18.75,1.39,28.59,11.77,33.37,19.49a41,41,0,0,1,2.7,5.13c1.9.67,3.57,1.29,5,1.84s2.35.95,3.18,1.3c1.3.55,2.73,1.13,4.27,1.76,18.69,7.61,53.49,21.78,49.31,60.35a1.7,1.7,0,0,0,0,.22c-.07.26-.82,2.52-7.24,5-1.25.49-2.72,1-4.45,1.5-6.86,2-17.74,3.94-35,5-48.66,3.07-85.05-7.52-94.09-27.12a24.48,24.48,0,0,1,10.31-1s-3.47-6.36-13.78-2.56c-7,2.58-8.31,8-8.43,11.18a11.55,11.55,0,0,0,.15,2.53,18.64,18.64,0,0,1,8.09-8.52c8.71,19,38.81,30,81.17,30,5.41,0,11-.18,16.83-.55,14.86-.94,25.39-2.54,32.84-4.4-3.12,6.21-9.8,14.81-24,24.68l0,0c-2.1,1.46-4.38,3-6.83,4.47A226.85,226.85,0,0,1,3380,411.3h0l-2.75.71c-1.85.47-3.38.81-4.55,1.06-1.69.35-2.62.51-2.67.52a1.92,1.92,0,0,0-1.2.68,2.35,2.35,0,0,0-.19.25,2,2,0,0,0-.29.9,1,1,0,0,0,0,.17,1.91,1.91,0,0,0,.1.58l0,.07,0,.14c.05.17.12.43.2.78,0,.13.07.28.11.44s.07.36.11.56l.06.3c0,.21.09.43.13.66,0,0,0,0,0,.05.05.3.11.62.16,1s.12.75.17,1.15c0,.2.06.41.08.62s.06.51.09.78l.06.56c0,.24.05.48.07.72,0,0,0,.08,0,.12q.14,1.44.18,3.09c0,.3,0,.61,0,.92q0,1.37,0,2.85c0,.36,0,.73,0,1.1,0,1-.13,2.09-.25,3.19a62.63,62.63,0,0,1-3.24,14.36c-.32.9-.65,1.78-1,2.67-.54,1.37-1.14,2.72-1.8,4.06q-1.42,2.94-3.16,5.78a57,57,0,0,1-5.21-3.9c-4.81-4.12-8.31-6.94-10.86-9-5.37-4.32-6.29-5.11-7.14-7.55l-.43-1.25-1.16-3.37c-.35-1-.7-2-1-3l-.82-2.31c-.92-2.57-1.8-5-2.66-7.34l-.85-2.28q-1.22-3.24-2.35-6.14l-1.36-3.42c-.33-.82-.66-1.63-1-2.4-.07-.18-.14-.35-.22-.53h0c-.09-.21-.17-.41-.26-.61l-.57-1.34c-.19-.43-.37-.86-.56-1.28l-.54-1.22-.53-1.17-.07-.16c-.2-.44-.4-.88-.6-1.3l-.65-1.36c-.26-.54-.51-1.05-.76-1.54-.4-.77-.78-1.48-1.14-2.14a2,2,0,1,0-3.49,1.95q.27.48.54,1c.32.59.64,1.22,1,1.89.13.27.27.54.4.82.29.6.59,1.24.9,1.9.12.25.23.5.35.76.87,1.93,1.81,4.1,2.8,6.51q1.71,4.17,3.65,9.27c.18.48.37,1,.55,1.47q1,2.54,1.95,5.29l1,2.69.61,1.71c.37,1,.73,2,1.1,3.09l1.44,4.13q.3.86.6,1.74l.43,1.25c1.25,3.59,2.91,4.93,8.4,9.36,2.54,2,6,4.84,10.78,8.92a57.28,57.28,0,0,0,5.63,4.21c1.09.74,2.22,1.45,3.37,2.14,3.74,2.29,7.73,4.42,11.66,6.52s7.84,4.18,11.39,6.34c.76.46,1.5.93,2.23,1.41l.08.05c.72.47,1.43.94,2.11,1.42,1.07.75,2.08,1.51,3,2.3l.1.08h0a35,35,0,0,1,3.47,3.25,20.16,20.16,0,0,1,4.44,7.2,39.16,39.16,0,0,1,2.34,11.34,14.71,14.71,0,0,1-.24,3.35c0,.27-.12.54-.19.79h0s0,0,0,0h0a7.52,7.52,0,0,1-.54,1.45,6.55,6.55,0,0,1-4,3.38,4.09,4.09,0,0,1-2.39.07,14.86,14.86,0,0,0,.08-3.41.13.13,0,0,0,0-.06h0q0-.48-.09-1c0-.33-.08-.65-.13-1s-.11-.65-.18-1-.13-.64-.21-1a55.35,55.35,0,0,0-6.49-14.79,2,2,0,0,0-3.37,2.16,50.21,50.21,0,0,1,6,13.47,19.59,19.59,0,0,1,.58,3.65l.14.08.12.08h0l.08.07-.35.07a9,9,0,0,1-.54,3.68,5,5,0,0,1-.36.73,6.52,6.52,0,0,1-4.43,2.92,5.88,5.88,0,0,1-5-1c-.2-.14-.4-.3-.6-.47a11.28,11.28,0,0,0,.77-3.66v-.09a22.39,22.39,0,0,0-.14-4c-.84-7.4-4.48-15.73-5.07-17a2,2,0,0,0-1.1-1l-2.2.51a2,2,0,0,0-.35,2.16c1.94,4.34,4.25,11.08,4.8,16.24a16.68,16.68,0,0,1,.1,2.95,5.63,5.63,0,0,1,0,.59,3.54,3.54,0,0,1-.07.47.28.28,0,0,1,0,.09,5.15,5.15,0,0,1-.63,1.81A2.44,2.44,0,0,1,3375,520a4.06,4.06,0,0,1-1.11.21,6.87,6.87,0,0,1-4.95-1.44s0,0,0,0a10.91,10.91,0,0,1-2.7-3.49,49.39,49.39,0,0,1-2.91-7.23c-1.11-3.25-2.16-6.32-3.8-8.55-.45-.6-.82-1.13-1.15-1.61l-.05-.07-.37-.52a14.59,14.59,0,0,0-2.26-2.63,3.65,3.65,0,0,0-.36-.31l-.12-.09a15.47,15.47,0,0,0-1.28-.9l-.5-.31c-1.05-.63-2.39-1.32-4.17-2.17l-.83-.39-2.77-1.26-.6-.27-.28-.12-1-.43-1.39-.61-4.18-1.82-4.19-1.82-4.65-2c-11.17-4.85-20.06-15.34-26.63-26a146.85,146.85,0,0,1-14-30.36,2,2,0,1,0-3.83,1.16,145.74,145.74,0,0,0,14,30.74c6.94,11.35,16.52,22.74,28.88,28.1l4.65,2,2,.88a151.79,151.79,0,0,1-27.2,14.86q7.29-1.26,14.76-2.62h0a137.42,137.42,0,0,0,16.71-10.39c5.39,2.36,8.72,3.85,10.9,5,.69.36,1.27.68,1.76,1a5,5,0,0,1,.45.29l.28.19a8.75,8.75,0,0,1,1.26,1.05l.34.36.25.3c.35.43.68.91,1.07,1.46s.74,1.05,1.21,1.69c1.27,1.72,2.22,4.51,3.23,7.46a57.6,57.6,0,0,0,2.63,6.77,20.28,20.28,0,0,0,2.18,3.64,10.72,10.72,0,0,0,8.95,4.52l.87,0a7.25,7.25,0,0,0,3.66-1.17c.24.2.5.4.75.58a9.92,9.92,0,0,0,5.85,2,11.52,11.52,0,0,0,9.42-5.13,7.89,7.89,0,0,0,2.28.34,8.42,8.42,0,0,0,2.65-.45,10.45,10.45,0,0,0,6.31-5.38,13.26,13.26,0,0,0,1.23-4.18,20.42,20.42,0,0,0,.15-4.12,44.74,44.74,0,0,0-2.51-11.75,22.84,22.84,0,0,0-4-7h0a30.15,30.15,0,0,0-3.1-3.33c-5.75-5.42-13.83-9.73-21.73-13.95-3.84-2.05-7.74-4.13-11.36-6.34q1.52-2.48,2.74-4.88a63.52,63.52,0,0,0,34.17,16.78l5.87,5.83,1.82-.5h0l2.63-.72.26-.07,16.36-4.54.19.12a15.1,15.1,0,0,1,1.95,1.48c.26.22.5.46.74.7h0c.26.27.5.54.74.82,2.63,3.11,3.59,6.82,4.4,9.94.87,3.36,1.85,7.15,5.44,7.15a4.78,4.78,0,0,0,.53,0c7.66-.73,8.25-4.6,9.44-12.31.2-1.33.43-2.82.72-4.49a19.76,19.76,0,0,0,.2-6.09,13.87,13.87,0,0,0-1.1-3.85c-3.34-7.3-13.57-12.24-33.82-17.23-16.79-4.13-29.58-17.77-37.07-27.91-.84-1.14-1.62-2.24-2.32-3.28-.93-1.34-1.73-2.58-2.41-3.67-.17-.29-.34-.56-.5-.82.86-.19,1.84-.42,2.94-.7h0c2.63-.64,5.93-1.53,9.77-2.7a233.75,233.75,0,0,0,53.79-24.43c22.31-13.77,30.67-26,33.72-34h0c6.17-2,9.41-4.22,11.06-6.16a5.67,5.67,0,0,0,1.55-3.49C3492,303.74,3455.47,288.85,3435.82,280.85Zm-59.39,145.64c1.12,1.53,2.36,3.15,3.71,4.8l.68.83c1.39,1.65,2.88,3.33,4.49,5,7.75,8.11,18.13,16,30.79,19.13,19.65,4.85,28,9.2,30.82,14.46h0a10.09,10.09,0,0,1,1.14,3.83,16.36,16.36,0,0,1-.23,4.31c-.3,1.69-.53,3.21-.74,4.56-1.19,7.78-1.43,8.51-5.86,8.94-.65.05-1.21-2.18-1.72-4.16a30.71,30.71,0,0,0-4.11-10.09h0l-.31-.44c-.33-.45-.68-.9-1.07-1.34l-.37-.39c-.14-.16-.29-.32-.45-.47s-.4-.4-.62-.59l-.1-.12c-.87-1.12-2.46-2.87-3.68-2.87h-.05a2.36,2.36,0,0,0-.44.07l-20.55,5.57-.43-.42-2.57-2.56-1.74-1.72a2.1,2.1,0,0,0-.41-.31h0a2.15,2.15,0,0,0-.7-.24,59.83,59.83,0,0,1-28.26-12.1,59.14,59.14,0,0,1-5.31-4.68q1-2.36,1.81-4.58a65.71,65.71,0,0,0,3.8-23.6c0-.54,0-1.06-.06-1.56,0-.27,0-.54-.05-.8s0-.52,0-.78-.05-.65-.08-1,0-.53-.08-.78l.44.66C3374.78,424.17,3375.57,425.31,3376.43,426.49Z" transform="translate(-3046.93 -119.83)"/></g><g id="capa"><path class="cls-19" d="M3384.93,410.8a31.84,31.84,0,0,1-7.72,1.21,36,36,0,0,1-13.67-2l-2.77-1c-3.16-1.09-6.53-2.26-10.41-3.94-10-4.31-23.26-12-44.69-30.46a89.19,89.19,0,0,0-38.35-19.5c-1.44-.34-2.86-.64-4.28-.9-22.94-4.27-43.18.53-51.14,2.91-21.55,6.47-53.24,12.71-81.77,5.71-29.36-7.19-41.75-15.58-42-15.74l-3-2.11-.12,3.69c0,.32-.62,32,33.65,47.67a98,98,0,0,0,21.21,7c2.26,4.87,11.88,23.25,29.14,25.61a53.56,53.56,0,0,0,7.18.46c9.69,0,19.37-2.3,26-4.32.83-1.73,1.72-3.43,2.65-5.09-7.2,2.46-22.24,6.77-35.29,5s-21.34-14.47-24.76-20.78c22,3.18,40.09-3.09,56.55-8.8,2.21-.77,4.41-1.56,6.61-2.35,10.46-3.75,20.62-7.41,32-8.7a76.38,76.38,0,0,1,9.07-.49h0c9.73.06,20.5,2,33.12,7a181.82,181.82,0,0,1,18.91,8.83h0c7.78,4.17,14.63,8.49,21,12.54l1.13.72,4.64,2.94c4.47,2.82,8.64,5.34,12.65,7.36,5.81,2.93,11.31,4.82,16.94,5.05,1.75.07,3.38.11,4.9.11a60.41,60.41,0,0,0,7.58-.41,30.25,30.25,0,0,0,4-.77,20.18,20.18,0,0,0,2.49-.83,16,16,0,0,0,3.56-2c3.15-2.39,5.25-6,7.41-11l.08-.19,1.69-3.91Zm-5.29,8.49-.27.32-.43.46c-.18.19-.37.36-.56.53l-.11.1c-.19.17-.39.33-.6.49a11.9,11.9,0,0,1-2.59,1.51l-.57.23-.45.17-.36.12-.08,0c-.26.09-.54.17-.82.24a19.52,19.52,0,0,1-2,.43l-1.1.17-.79.1-1.67.16c-.58,0-1.19.08-1.82.1l-1,0c-2,0-4.3,0-6.87-.08-.34,0-.67,0-1-.06s-.67-.06-1-.11-.68-.08-1-.14l-1-.18-1-.22-1-.26-.87-.25c-.4-.11-.79-.23-1.19-.37l-1-.36-.07,0c-.95-.35-1.9-.74-2.87-1.16-1.14-.5-2.3-1.05-3.47-1.66l-1.09-.56a0,0,0,0,1,0,0l-1.36-.73-.45-.25c-.52-.28-1-.57-1.55-.87-3.81-2.18-7.83-4.75-12.17-7.51l-.07,0h0l-3.82-2.43-2.18-1.38h0l-2.85-1.78c-1.11-.68-2.24-1.38-3.4-2.07l-2.27-1.34-2.25-1.31c-2.27-1.3-4.62-2.6-7.07-3.89h0c-.67-.35-1.34-.71-2-1.05s-1.4-.71-2.1-1.06c-2.56-1.27-5.21-2.51-8-3.72-.81-.35-1.63-.71-2.46-1.05-1-.44-2.1-.87-3.18-1.3l-2.31-.89-.53-.19c-.69-.26-1.38-.51-2.06-.74s-1.59-.55-2.37-.8h0c-.79-.26-1.57-.5-2.35-.73-.58-.18-1.16-.35-1.73-.5-.38-.11-.75-.22-1.12-.31-1.14-.31-2.26-.59-3.37-.84l-1.24-.28-1.36-.28-.25-.05-1.63-.3c-.26-.06-.52-.1-.77-.14-.61-.11-1.22-.2-1.82-.29s-1.11-.16-1.66-.23l-.9-.11-1.53-.17h0c-2.75-.27-5.41-.4-8-.4H3247l-1.11,0h-.29l-1.23.06c-1,.06-2,.13-3,.22l-1.24.12-1.58.18-1,.14c-.81.11-1.61.23-2.41.36-.35.05-.69.11-1,.18s-.89.15-1.33.24c-3,.58-5.94,1.29-8.81,2.09-.85.24-1.7.48-2.54.74l-2.42.74c-4.2,1.33-8.29,2.8-12.35,4.26-2.19.79-4.37,1.57-6.57,2.34-12.28,4.26-24.79,8.6-38.86,9.38h0c-12.15.66-25.47-1.33-40.82-8.33-25.48-11.63-30.25-32.06-31.12-40.33,5.5,3,18.08,9,40,14.35,29.41,7.21,61.84.84,83.87-5.77a110.77,110.77,0,0,1,32.21-4.44l1.18,0,1.2,0,1.2.05,1.22.06,1.22.08c1.29.08,2.6.2,3.93.35.77.08,1.55.18,2.33.29,1.17.15,2.34.33,3.52.54,1,.15,2,.34,2.93.55h0c.63.12,1.26.26,1.89.4.27.06.55.12.83.2s.79.18,1.19.29l.52.13.11,0,.21.06,1.32.36c1,.25,1.91.54,2.86.84,1.37.43,2.75.91,4.13,1.43a.6.6,0,0,1,.21.08c.68.25,1.36.51,2,.79l1.86.78c.24.1.48.2.72.32.44.19.88.39,1.33.61q.36.15.72.33l1.39.68.92.46,1.31.69.49.27.7.38c2.32,1.3,4.63,2.73,6.92,4.31.62.43,1.24.87,1.86,1.33s1.24.91,1.85,1.39,1.23,1,1.84,1.46,1.22,1,1.83,1.53c30.35,26.14,44.8,31.14,56.41,35.15l2.73,1a36.92,36.92,0,0,0,3.8,1.13q.54.13,1.08.24h0l.88.18.31.06.36.06,1.4.22.82.1,1.6.15.81.05c.46,0,.91,0,1.35.05,1.07,0,2.09,0,3-.05h0l.57,0a5.65,5.65,0,0,0,.59,0c.35,0,.68-.06,1-.09h0c.78-.09,1.5-.19,2.15-.29A20.31,20.31,0,0,1,3379.64,419.29Z" transform="translate(-3046.93 -119.83)"/><path class="cls-20" d="M3240,384.43a102.89,102.89,0,0,0-22.25,18,92.23,92.23,0,0,0-12.9,17.68c-7.2,2.46-22.24,6.77-35.29,5s-21.34-14.47-24.76-20.78c22,3.18,40.09-3.09,56.55-8.8,2.21-.77,4.41-1.56,6.61-2.35C3218.4,389.38,3228.56,385.72,3240,384.43Z" transform="translate(-3046.93 -119.83)"/><path class="cls-20" d="M3382,415.54a20.31,20.31,0,0,1-2.4,3.75l-.27.32-.43.46c-.18.19-.37.36-.56.53l-.11.1c-.19.17-.39.33-.6.49a11.9,11.9,0,0,1-2.59,1.51l-.57.23-.45.17-.36.12-.08,0c-.26.09-.54.17-.82.24a19.52,19.52,0,0,1-2,.43l-1.1.17-.79.1-1.67.16c-.58,0-1.19.08-1.82.1l-1,0c-2,0-4.3,0-6.87-.08-.34,0-.67,0-1-.06s-.67-.06-1-.11-.68-.08-1-.14l-1-.18-1-.22-1-.26-.87-.25c-.4-.11-.79-.23-1.19-.37l-1-.36-.07,0c-.95-.35-1.9-.74-2.87-1.16-1.14-.5-2.3-1.05-3.47-1.66l-1.09-.56a0,0,0,0,1,0,0l-1.36-.73-.45-.25c-.52-.28-1-.57-1.55-.87-3.81-2.18-7.83-4.75-12.17-7.51l-.07,0h0l-3.82-2.43-2.18-1.38h0l-2.85-1.78c-1.11-.68-2.24-1.38-3.4-2.07l-2.27-1.34-2.25-1.31c-2.27-1.3-4.62-2.6-7.07-3.89h0c-.67-.35-1.34-.71-2-1.05s-1.4-.71-2.1-1.06c-2.56-1.27-5.21-2.51-8-3.72-.81-.35-1.63-.71-2.46-1.05-1-.44-2.1-.87-3.18-1.3l-2.31-.89-.53-.19c-.69-.26-1.38-.51-2.06-.74s-1.59-.55-2.37-.8h0c-.79-.26-1.57-.5-2.35-.73-.58-.18-1.16-.35-1.73-.5-.38-.11-.75-.22-1.12-.31-1.14-.31-2.26-.59-3.37-.84l-1.24-.28-1.36-.28-.25-.05-1.63-.3c-.26-.06-.52-.1-.77-.14-.61-.11-1.22-.2-1.82-.29s-1.11-.16-1.66-.23l-.9-.11-1.53-.17h0c-2.75-.27-5.41-.4-8-.4H3247l-1.11,0h-.29l-1.23.06c-1,.06-2,.13-3,.22l-1.24.12-1.58.18-1,.14c-.81.11-1.61.23-2.41.36-.35.05-.69.11-1,.18s-.89.15-1.33.24c-3,.58-5.94,1.29-8.81,2.09-.85.24-1.7.48-2.54.74l-2.42.74c-4.2,1.33-8.29,2.8-12.35,4.26-2.19.79-4.37,1.57-6.57,2.34-12.28,4.26-24.79,8.6-38.86,9.38,4.7-.56,17.35-3.19,40.62-15.51,21.36-11.32,42.21-13.32,58.7-11.07h0a77.75,77.75,0,0,1,7.85,1.44A70.47,70.47,0,0,1,3279,379.3c1.2.49,2.57,1.13,4.08,1.88,8.26,4.12,20.75,11.79,33.58,19.26,2.05,1.2,4.12,2.39,6.17,3.56,16.33,9.29,32.21,17.28,39.68,16.26,2.41-.33,4.6-.72,6.56-1.14,2.37-.5,4.43-1.05,6.19-1.6a47.22,47.22,0,0,0,4.62-1.69h0C3380.67,415.74,3381.39,415.64,3382,415.54Z" transform="translate(-3046.93 -119.83)"/><path class="cls-21" d="M3379.88,415.83a47.22,47.22,0,0,1-4.62,1.69c-1.76.55-3.82,1.1-6.19,1.6-2,.42-4.15.81-6.56,1.14-7.47,1-23.35-7-39.68-16.26-2-1.17-4.12-2.36-6.17-3.56-12.83-7.47-25.32-15.14-33.58-19.26-1.51-.75-2.88-1.39-4.08-1.88a70.47,70.47,0,0,0-10.66-3.36,77.75,77.75,0,0,0-7.85-1.44h0c-16.49-2.25-37.34-.25-58.7,11.07-23.27,12.32-35.92,14.95-40.62,15.51h0c-12.15.66-25.47-1.33-40.82-8.33-25.48-11.63-30.25-32.06-31.12-40.33,5.5,3,18.08,9,40,14.35,29.41,7.21,61.84.84,83.87-5.77a110.77,110.77,0,0,1,32.21-4.44l1.18,0,1.2,0,1.2.05,1.22.06,1.22.08c1.29.08,2.6.2,3.93.35.77.09,1.55.18,2.33.29,1.17.15,2.34.33,3.52.54,1,.15,2,.34,2.93.55h0c.63.12,1.26.26,1.89.4.27.06.55.12.83.2s.79.18,1.19.29l.52.13h0l.11,0,.21.06,1.32.36c1,.25,1.91.54,2.86.84,1.37.43,2.75.91,4.13,1.43a.6.6,0,0,1,.21.08c.68.25,1.36.51,2,.79l1.86.78c.24.1.48.2.72.32.44.19.88.39,1.33.61q.36.15.72.33l1.39.68.92.46,1.31.69.49.27.7.38c2.32,1.3,4.63,2.73,6.92,4.31.62.43,1.24.87,1.86,1.33s1.24.91,1.85,1.39,1.23,1,1.84,1.46,1.22,1,1.83,1.53c30.35,26.14,44.8,31.14,56.41,35.15l2.73,1a36.92,36.92,0,0,0,3.8,1.13q.54.13,1.08.24h0l.88.18.31.06.36.06,1.4.22.82.1,1.6.15.81.05c.46,0,.91,0,1.35.05,1.07,0,2.09,0,3-.05h0l.57,0a5.65,5.65,0,0,0,.59,0C3379.22,415.9,3379.55,415.86,3379.88,415.83Z" transform="translate(-3046.93 -119.83)"/></g><g id="gorro"><path class="cls-1" d="M3504.54,222.43a2,2,0,0,0-1.92-1.65l-135.56-3.49-22-31.65a2.22,2.22,0,0,0-.28-.33C3278.31,124.08,3232.51,120,3224,119.83h-.27c-13.56,0-33.89,23.32-51.9,45.21-3.36,4.08-6,7.31-7.64,9-7.6,8-30.18,9.94-30.41,10a2,2,0,0,0-1.19,3.46c22.31,20.64,44.66,20,59.48,15.77a76.64,76.64,0,0,0,24.33-12.08l.07,0,.3,1.29,6.4,27.32c2.12,9,2.57,18.85,2.16,28.28,1.3-1.17,2.69-2.4,4.15-3.66a105.35,105.35,0,0,0-2.41-25.54l-6.78-28.9c-.74-5.23-5.2-13.37-5.75-14.36a2,2,0,1,0-3.49,1.94,68.47,68.47,0,0,1,4.32,9.4,72.84,72.84,0,0,1-24.53,12.55c-18.75,5.26-36.29,1.24-52.2-12l.14,0c7.49-1.06,21.91-3.93,28.31-10.63,1.72-1.8,4.42-5.08,7.83-9.23,11.71-14.23,36-43.75,48.79-43.75h.2c8.24.19,52.66,4.16,118,64.27l22.46,32.3a2,2,0,0,0,1.59.86l126.38,3.26c-3.58,1.25-8.18,2.78-13.77,4.48-16,4.86-42.68,11.8-78.43,17.24-37.13,5.65-70.76,23.3-106.38,42-9.34,4.91-19,10-28.85,14.89-24,12-52.3,24.78-85.64,32.92h0c-7.21,1.75-14.66,3.3-22.35,4.57l64.33-46.93a2,2,0,0,0,.73-1c.1-.34.67-2.21,1.45-5.25-1.69,1.09-3.37,2.2-5.05,3.31,0,.05,0,.1,0,.15l-70.4,51.36a2,2,0,0,0,1.18,3.62l.27,0c2.82-.39,5.43-.79,8-1.22,43.84-7.2,79.88-23.2,109.34-37.9,9.89-4.93,19.57-10,28.93-14.92,35.31-18.53,68.66-36,105.12-41.57,36-5.48,62.82-12.47,79-17.38,15.16-4.59,23.2-8,23.49-8.14l.1,0A2,2,0,0,0,3504.54,222.43Z" transform="translate(-3046.93 -119.83)"/><path class="cls-22" d="M3492.33,224.52c-3.58,1.25-8.18,2.78-13.77,4.48-16,4.86-42.68,11.8-78.43,17.24-37.13,5.65-70.76,23.3-106.38,42-9.34,4.91-19,10-28.85,14.89-24,12-52.3,24.78-85.64,32.92,68-47.56,90.48-69.62,72.28-107.18s-25.37-64.24-25.37-64.24c-5.21,3.91-6.78,11.09-6.78,11.09-4.56-3.79-4.69-16.57-4.69-16.57s-4.7,7.57-4.7,10.57-4.3,5.73-21.52,16.17c-15,9.09-42.81,3.22-49.69,1.57,7.49-1.06,21.91-3.93,28.31-10.63,1.72-1.8,4.42-5.08,7.83-9.23,11.71-14.23,36-43.75,48.79-43.75h.2c8.24.19,52.66,4.16,118,64.27l22.46,32.3a2,2,0,0,0,1.59.86Z" transform="translate(-3046.93 -119.83)"/><path class="cls-23" d="M3179.26,336h0c-7.21,1.75-14.66,3.3-22.35,4.57l64.33-46.93a2,2,0,0,0,.73-1c.52-1.7,12.6-42,5.13-73.84l-6.78-28.9c-.74-5.23-5.2-13.37-5.75-14.36a2,2,0,1,0-3.49,1.94,68.47,68.47,0,0,1,4.32,9.4,72.84,72.84,0,0,1-24.53,12.55c-18.75,5.26-36.29,1.24-52.2-12l.14,0c6.88,1.65,34.68,7.52,49.69-1.57C3205.7,175.43,3210,172.7,3210,169.7s4.7-10.57,4.7-10.57.13,12.78,4.69,16.57c0,0,1.57-7.18,6.78-11.09,0,0,7.18,26.67,25.37,64.24S3247.22,288.47,3179.26,336Z" transform="translate(-3046.93 -119.83)"/></g><g id="lazo_gorro" data-name="lazo gorro"><path class="cls-24" d="M3330.78,230.16c-.1-.21-10.61-20.83-13.94-28.76a8.26,8.26,0,0,1-.73-4l.3-2.94-1.71.49h0l-1.13.32c-.81.23-1.63.48-2.44.73l-.08,0c-19.3,6-39.34,16.4-59.57,30.88h0c-8.44,6-15.87,12.07-22,17.37-1.46,1.26-2.85,2.49-4.15,3.66q-.14,2.91-.36,5.75a204.4,204.4,0,0,1-5.11,31.16c-.67,2.76-1.23,4.77-1.52,5.79,1.68-1.11,3.36-2.22,5.05-3.31,10.94-7.15,22-13.87,32.87-20l.79-.45a516.41,516.41,0,0,1,62.74-30.17h0l.41-.16c3.13-1.22,6.32-2.44,9.49-3.61l.11,0,2-.75Zm-11.64,2.53-.39.15A519.12,519.12,0,0,0,3255.88,263l-.78.44c-10.08,5.68-20.24,11.81-30.35,18.32a196,196,0,0,0,4.54-31.9,298.94,298.94,0,0,1,23.88-19.16l.62-.45c19.85-14.21,39.48-24.4,58.34-30.29l.1,0h0a13.62,13.62,0,0,0,.91,3c2.79,6.68,10.29,21.6,13,27C3323.84,230.87,3321.47,231.77,3319.14,232.69Z" transform="translate(-3046.93 -119.83)"/><path class="cls-25" d="M3255.88,263l-.78.44c-10.08,5.68-20.24,11.81-30.35,18.32a196,196,0,0,0,4.54-31.9,298.94,298.94,0,0,1,23.88-19.16C3253.21,233.06,3255,253.58,3255.88,263Z" transform="translate(-3046.93 -119.83)"/><path class="cls-25" d="M3326.2,230c-2.36.89-4.73,1.79-7.06,2.71-1.1-6.44-3.35-18.43-7-32.75l.1,0h0a13.62,13.62,0,0,0,.91,3C3316,209.62,3323.45,224.54,3326.2,230Z" transform="translate(-3046.93 -119.83)"/><path class="cls-26" d="M3319.14,232.69l-.39.15A519.12,519.12,0,0,0,3255.88,263c-.85-9.4-2.67-29.92-2.71-32.3l.62-.45c19.85-14.21,39.48-24.4,58.34-30.29C3315.79,214.26,3318,226.25,3319.14,232.69Z" transform="translate(-3046.93 -119.83)"/></g><path class="cls-24" d="M3361.52,212c-2.28-3.44-8-12.53-8.77-13.7a7.29,7.29,0,0,0-7.92-4.23,112.87,112.87,0,0,0-12.49,3.81l-.12.05a6,6,0,0,0-2.83,8.11c1.59,3.81,6.23,13,6.87,14.21a7.08,7.08,0,0,0,3.19,3.81,6.21,6.21,0,0,0,3,.72,8.38,8.38,0,0,0,2.5-.41l.47-.15.19-.06.57-.18.2-.06.3-.1.46-.15.82-.26.08,0,1-.32.12,0,1-.32,4.08-1.32,2.15-.69.4-.13,1.56-.5.2-.07.2-.07.14,0,.32-.11.2-.08.22-.1.24-.12a5.59,5.59,0,0,0,1.39-1l.27-.28a1.81,1.81,0,0,0,.25-.3,4.15,4.15,0,0,0,.24-.34,4,4,0,0,0,.38-.78A5.18,5.18,0,0,0,3361.52,212Zm-2.88,3.41a1.75,1.75,0,0,1-.91.64l-.06,0s-9.1,2.94-14,4.48c-2.5.79-3.38-.7-3.68-1.63l-.14-.35c0-.1-5.19-10.21-6.82-14.08-.71-1.7,0-2.51.73-2.88a104.07,104.07,0,0,1,11.77-3.6,3.29,3.29,0,0,1,3.57,2l.15.29c.06.1,6.45,10.19,8.89,13.89C3358.64,214.89,3358.68,215.29,3358.64,215.41Zm2.88-3.41c-2.28-3.44-8-12.53-8.77-13.7a7.29,7.29,0,0,0-7.92-4.23,112.87,112.87,0,0,0-12.49,3.81l-.12.05a6,6,0,0,0-2.83,8.11c1.59,3.81,6.23,13,6.87,14.21a7.08,7.08,0,0,0,3.19,3.81,6.21,6.21,0,0,0,3,.72,8.38,8.38,0,0,0,2.5-.41l.47-.15.19-.06.57-.18.2-.06.3-.1.46-.15.82-.26.08,0,1-.32.12,0,1-.32,4.08-1.32,2.15-.69.4-.13,1.56-.5.2-.07.2-.07.14,0,.32-.11.2-.08.22-.1.24-.12a5.59,5.59,0,0,0,1.39-1l.27-.28a1.81,1.81,0,0,0,.25-.3,4.15,4.15,0,0,0,.24-.34,4,4,0,0,0,.38-.78A5.18,5.18,0,0,0,3361.52,212Zm-2.88,3.41a1.75,1.75,0,0,1-.91.64l-.06,0s-9.1,2.94-14,4.48c-2.5.79-3.38-.7-3.68-1.63l-.14-.35c0-.1-5.19-10.21-6.82-14.08-.71-1.7,0-2.51.73-2.88a104.07,104.07,0,0,1,11.77-3.6,3.29,3.29,0,0,1,3.57,2l.15.29c.06.1,6.45,10.19,8.89,13.89C3358.64,214.89,3358.68,215.29,3358.64,215.41Zm16.59,2.1-.33-.53c-4.36-6.58-14.48-22.52-16.46-25.66-.78-1.21-1.31-2-1.5-2.35-1.48-3.33-6.19-9-13.89-7.55-8.4,1.59-24.41,7.41-25.09,7.66l-.12,0c-.21.1-5.19,2.36-5.71,7.92a12,12,0,0,0,1,5.89c3.27,7.81,13,26.92,14,28.9a12.48,12.48,0,0,0,5.54,6.72,10.48,10.48,0,0,0,5,1.22,15.15,15.15,0,0,0,4.49-.74c9.81-3.1,28.26-9.08,28.38-9.12.46-.13,4.5-1.38,5.85-5C3377.26,222.66,3376.86,220.18,3375.23,217.51Zm-2.54,6c-.54,1.5-2.5,2.38-3.27,2.61-.18.06-18.62,6-28.41,9.12a8.19,8.19,0,0,1-6.41-.17,8.51,8.51,0,0,1-3.68-4.54l-.14-.35c-.1-.21-10.61-20.83-13.94-28.76a8.28,8.28,0,0,1-.73-4,6.07,6.07,0,0,1,3.31-4.63c1.26-.46,16.59-6,24.37-7.45,6.61-1.24,9.43,5.07,9.54,5.33l.15.28s.59.95,1.58,2.5c1.94,3.06,11.63,18.33,16.17,25.21l.33.51C3372.71,220.94,3373.09,222.38,3372.69,223.49Zm-19.94-25.19a7.29,7.29,0,0,0-7.92-4.23,112.87,112.87,0,0,0-12.49,3.81l-.12.05a6,6,0,0,0-2.83,8.11c1.59,3.81,6.23,13,6.87,14.21a7.08,7.08,0,0,0,3.19,3.81,6.21,6.21,0,0,0,3,.72,8.38,8.38,0,0,0,2.5-.41l.47-.15.19-.06.57-.18.2-.06.3-.1.46-.15.82-.26.08,0,1-.32.12,0,1-.32,4.08-1.32,2.15-.69.4-.13,1.56-.5.2-.07.2-.07.14,0,.32-.11.2-.08.22-.1.24-.12a5.59,5.59,0,0,0,1.39-1l.27-.28a1.81,1.81,0,0,0,.25-.3,4.15,4.15,0,0,0,.24-.34,4,4,0,0,0,.38-.78,5.18,5.18,0,0,0-.87-4.8C3359.24,208.56,3353.48,199.47,3352.75,198.3Zm5.89,17.11a1.75,1.75,0,0,1-.91.64l-.06,0s-9.1,2.94-14,4.48c-2.5.79-3.38-.7-3.68-1.63l-.14-.35c0-.1-5.19-10.21-6.82-14.08-.71-1.7,0-2.51.73-2.88a104.07,104.07,0,0,1,11.77-3.6,3.29,3.29,0,0,1,3.57,2l.15.29c.06.1,6.45,10.19,8.89,13.89C3358.64,214.89,3358.68,215.29,3358.64,215.41Z" transform="translate(-3046.93 -119.83)"/><path class="cls-27" d="M3371.56,219.19l-.33-.51c-4.54-6.88-14.23-22.15-16.17-25.21-1-1.55-1.58-2.5-1.58-2.5l-.15-.28c-.11-.26-2.93-6.57-9.54-5.33-7.78,1.46-23.11,7-24.37,7.45a6.07,6.07,0,0,0-3.31,4.63,8.28,8.28,0,0,0,.73,4c3.33,7.93,13.84,28.55,13.94,28.76l.14.35a8.51,8.51,0,0,0,3.68,4.54,8.19,8.19,0,0,0,6.41.17c9.79-3.09,28.23-9.06,28.41-9.12.77-.23,2.73-1.11,3.27-2.61C3373.09,222.38,3372.71,220.94,3371.56,219.19Zm-9.17-2.39a4,4,0,0,1-.38.78,4.15,4.15,0,0,1-.24.34,1.81,1.81,0,0,1-.25.3,2.37,2.37,0,0,1-.27.28,5.59,5.59,0,0,1-1.39,1,1.34,1.34,0,0,1-.24.12l-.22.1-.2.08-.32.11-.14,0-.2.07-.2.07-1.56.5-.4.13-2.15.69-4.08,1.32-1,.32-.12,0-1,.32-.08,0-.82.26-.46.15-.3.1-.2.06-.57.18-.19.06-.47.15a8.38,8.38,0,0,1-2.5.41,6.21,6.21,0,0,1-3-.72,7.08,7.08,0,0,1-3.19-3.81c-.64-1.26-5.28-10.4-6.87-14.21a6,6,0,0,1,2.83-8.11l.12-.05a112.87,112.87,0,0,1,12.49-3.81,7.29,7.29,0,0,1,7.92,4.23c.73,1.17,6.49,10.26,8.77,13.7A5.18,5.18,0,0,1,3362.39,216.8Z" transform="translate(-3046.93 -119.83)"/><path class="cls-26" d="M3358.29,218s-9.11,2.95-14,4.49a4.64,4.64,0,0,1-6.2-3s-5.21-10.23-6.88-14.21a4,4,0,0,1,1.8-5.51A109.93,109.93,0,0,1,3345.2,196c4.09-.77,5.78,3.21,5.78,3.21s6.41,10.13,8.87,13.85S3358.29,218,3358.29,218Z" transform="translate(-3046.93 -119.83)"/><path class="cls-24" d="M3361.52,212c-2.28-3.44-8-12.53-8.77-13.7a7.29,7.29,0,0,0-7.92-4.23,112.87,112.87,0,0,0-12.49,3.81l-.12.05a6,6,0,0,0-2.83,8.11c1.59,3.81,6.23,13,6.87,14.21a7.08,7.08,0,0,0,3.19,3.81,6.21,6.21,0,0,0,3,.72,8.38,8.38,0,0,0,2.5-.41l.47-.15.19-.06.57-.18.2-.06.3-.1.46-.15.82-.26.08,0,1-.32.12,0,1-.32,4.08-1.32,2.15-.69.4-.13,1.56-.5.2-.07.2-.07.14,0,.32-.11.2-.08.22-.1.24-.12a5.59,5.59,0,0,0,1.39-1l.27-.28a1.81,1.81,0,0,0,.25-.3,4.15,4.15,0,0,0,.24-.34,4,4,0,0,0,.38-.78A5.18,5.18,0,0,0,3361.52,212Zm-2.88,3.41a1.75,1.75,0,0,1-.91.64l-.06,0s-9.1,2.94-14,4.48c-2.5.79-3.38-.7-3.68-1.63l-.14-.35c0-.1-5.19-10.21-6.82-14.08-.71-1.7,0-2.51.73-2.88a104.07,104.07,0,0,1,11.77-3.6,3.29,3.29,0,0,1,3.57,2l.15.29c.06.1,6.45,10.19,8.89,13.89C3358.64,214.89,3358.68,215.29,3358.64,215.41Z" transform="translate(-3046.93 -119.83)"/></svg>